<svg width="24" height="25" viewBox="0 0 24 25" fill="none" xmlns="http://www.w3.org/2000/svg">
<path d="M18.2987 6.21C17.9087 5.82 17.2787 5.82 16.8887 6.21L11.9988 11.09L7.10875 6.2C6.71875 5.81 6.08875 5.81 5.69875 6.2C5.30875 6.59 5.30875 7.22 5.69875 7.61L10.5888 12.5L5.69875 17.39C5.30875 17.78 5.30875 18.41 5.69875 18.8C6.08875 19.19 6.71875 19.19 7.10875 18.8L11.9988 13.91L16.8887 18.8C17.2787 19.19 17.9087 19.19 18.2987 18.8C18.6887 18.41 18.6887 17.78 18.2987 17.39L13.4087 12.5L18.2987 7.61C18.6787 7.23 18.6787 6.59 18.2987 6.21Z" fill="#212529"/>
</svg>
