<svg width="327" height="235" viewBox="0 0 327 235" fill="none" xmlns="http://www.w3.org/2000/svg">
<path d="M36.5848 223.694C36.2713 223.709 35.961 223.626 35.6958 223.458C35.4307 223.29 35.2236 223.045 35.1025 222.755C34.9815 222.465 34.9523 222.145 35.019 221.838C35.0858 221.531 35.2452 221.253 35.4756 221.039L35.5805 220.622C35.5667 220.589 35.5528 220.555 35.5388 220.522C35.223 219.776 34.6938 219.139 34.0177 218.693C33.3417 218.246 32.5488 218.009 31.7388 218.012C30.9288 218.015 30.1378 218.258 29.465 218.709C28.7923 219.161 28.2679 219.801 27.9576 220.55C26.7177 223.539 25.139 226.533 24.7503 229.693C24.5791 231.09 24.6514 232.505 24.9638 233.878C22.0515 227.52 20.5392 220.61 20.5295 213.616C20.5289 211.861 20.6263 210.107 20.8214 208.363C20.9825 206.933 21.2061 205.513 21.4922 204.104C23.0531 196.456 26.4044 189.288 31.271 183.188C33.6264 181.902 35.5313 179.924 36.7289 177.521C37.1627 176.657 37.4694 175.735 37.6393 174.784C37.3736 174.818 36.6374 170.769 36.8378 170.52C36.4675 169.958 35.8048 169.678 35.4004 169.13C33.3891 166.401 30.6181 166.877 29.1715 170.586C26.0813 172.146 26.0513 174.735 27.9475 177.225C29.1539 178.809 29.3196 180.952 30.3781 182.648C30.2692 182.787 30.1559 182.922 30.047 183.062C28.0564 185.623 26.3214 188.374 24.867 191.275C25.2207 188.025 24.7985 184.738 23.6352 181.684C22.4563 178.838 20.2464 176.441 18.3005 173.98C15.963 171.024 11.1698 172.314 10.758 176.061C10.754 176.097 10.7501 176.134 10.7463 176.17C11.0354 176.333 11.3183 176.506 11.5952 176.689C11.9429 176.922 12.2124 177.254 12.3683 177.643C12.5242 178.031 12.5592 178.458 12.4687 178.866C12.3782 179.275 12.1665 179.647 11.8613 179.933C11.5561 180.219 11.1716 180.406 10.7582 180.47L10.7159 180.477C10.8188 181.519 11.0008 182.553 11.2603 183.567C8.76384 193.23 14.1536 196.749 21.8493 196.907C22.0192 196.994 22.1848 197.081 22.3547 197.164C20.8934 201.308 19.9768 205.625 19.6279 210.006C19.4304 212.591 19.4421 215.187 19.6628 217.77L19.6497 217.679C19.0921 214.807 17.5612 212.215 15.3156 210.342C11.9803 207.6 7.26815 206.59 3.66994 204.386C3.28754 204.141 2.84291 204.009 2.38847 204.008C1.93404 204.007 1.48877 204.136 1.10517 204.38C0.721577 204.624 0.415667 204.972 0.223507 205.385C0.0313472 205.797 -0.0390453 206.255 0.0206424 206.706C0.0254687 206.738 0.0303794 206.77 0.0353657 206.802C0.571752 207.021 1.094 207.273 1.59909 207.556C1.88814 207.72 2.17108 207.893 2.44792 208.076C2.7957 208.309 3.06517 208.641 3.22104 209.029C3.37691 209.418 3.4119 209.844 3.32143 210.253C3.23096 210.662 3.01925 211.033 2.71403 211.32C2.40881 211.606 2.02432 211.793 1.61094 211.857L1.56856 211.863C1.53808 211.868 1.51195 211.872 1.4815 211.876C2.39799 214.066 3.6843 216.082 5.28411 217.835C6.8451 226.27 13.5495 227.07 20.7212 224.614H20.7256C21.5124 228.036 22.6525 231.367 24.1275 234.553H36.2803C36.3239 234.418 36.363 234.279 36.4023 234.143C35.2774 234.214 34.148 234.147 33.0395 233.943C33.9412 232.836 34.8428 231.72 35.7445 230.612C35.7646 230.592 35.7835 230.57 35.8011 230.547C36.2585 229.98 36.7202 229.418 37.1776 228.851L37.1778 228.851C37.2022 227.114 37.003 225.381 36.5852 223.694L36.5848 223.694Z" fill="#F2F2F2"/>
<path d="M290.415 223.694C290.729 223.709 291.039 223.626 291.304 223.458C291.569 223.29 291.777 223.045 291.898 222.755C292.019 222.465 292.048 222.145 291.981 221.838C291.914 221.531 291.755 221.253 291.525 221.039L291.42 220.622C291.433 220.589 291.447 220.555 291.461 220.522C291.777 219.776 292.306 219.139 292.982 218.693C293.658 218.246 294.451 218.009 295.261 218.012C296.071 218.015 296.862 218.258 297.535 218.709C298.208 219.161 298.732 219.801 299.042 220.55C300.282 223.539 301.861 226.533 302.25 229.693C302.421 231.09 302.349 232.505 302.036 233.878C304.949 227.52 306.461 220.61 306.471 213.616C306.471 211.861 306.374 210.107 306.179 208.363C306.018 206.933 305.794 205.513 305.508 204.104C303.947 196.456 300.596 189.288 295.729 183.188C293.374 181.902 291.469 179.924 290.271 177.521C289.837 176.657 289.531 175.735 289.361 174.784C289.627 174.818 290.363 170.769 290.162 170.52C290.533 169.958 291.195 169.678 291.6 169.13C293.611 166.401 296.382 166.877 297.829 170.586C300.919 172.146 300.949 174.735 299.053 177.225C297.846 178.809 297.68 180.952 296.622 182.648C296.731 182.787 296.844 182.922 296.953 183.062C298.944 185.623 300.679 188.374 302.133 191.275C301.779 188.025 302.202 184.738 303.365 181.684C304.544 178.838 306.754 176.441 308.7 173.98C311.037 171.024 315.83 172.314 316.242 176.061C316.246 176.097 316.25 176.134 316.254 176.17C315.965 176.333 315.682 176.506 315.405 176.689C315.057 176.922 314.788 177.254 314.632 177.643C314.476 178.031 314.441 178.458 314.531 178.866C314.622 179.275 314.834 179.647 315.139 179.933C315.444 180.219 315.829 180.406 316.242 180.47L316.284 180.477C316.181 181.519 315.999 182.553 315.74 183.567C318.236 193.23 312.847 196.749 305.151 196.907C304.981 196.994 304.815 197.081 304.645 197.164C306.107 201.308 307.023 205.625 307.372 210.006C307.57 212.591 307.558 215.187 307.337 217.77L307.35 217.679C307.908 214.807 309.439 212.215 311.685 210.342C315.02 207.6 319.732 206.59 323.33 204.386C323.713 204.141 324.157 204.009 324.612 204.008C325.066 204.007 325.511 204.136 325.895 204.38C326.279 204.624 326.584 204.972 326.777 205.385C326.969 205.797 327.039 206.255 326.979 206.706C326.975 206.738 326.97 206.77 326.965 206.802C326.428 207.021 325.906 207.273 325.401 207.556C325.112 207.72 324.829 207.893 324.552 208.076C324.204 208.309 323.935 208.641 323.779 209.029C323.623 209.418 323.588 209.844 323.679 210.253C323.769 210.662 323.981 211.033 324.286 211.32C324.591 211.606 324.976 211.793 325.389 211.857L325.432 211.863C325.462 211.868 325.488 211.872 325.519 211.876C324.602 214.066 323.316 216.082 321.716 217.835C320.155 226.27 313.451 227.07 306.279 224.614H306.275C305.488 228.036 304.348 231.367 302.873 234.553H290.72C290.676 234.418 290.637 234.279 290.598 234.143C291.723 234.214 292.852 234.147 293.961 233.943C293.059 232.836 292.157 231.72 291.256 230.612C291.236 230.592 291.217 230.57 291.199 230.547C290.742 229.98 290.28 229.418 289.823 228.851L289.822 228.851C289.798 227.114 289.997 225.381 290.415 223.694L290.415 223.694Z" fill="#F2F2F2"/>
<path d="M50.563 234.281H70.1737C73.5277 222.979 70.1916 196.268 74.6125 185.351C83.0943 164.418 93.9299 142.331 114.154 132.11C122.789 127.746 132.204 126.041 141.82 126.134C155.103 126.26 168.759 129.828 181.261 134.557C186.376 136.488 191.443 138.61 196.491 140.779C215.508 148.957 234.319 157.865 254.77 160.272C280.649 163.317 311.075 151.73 318.143 126.771C323.537 107.662 313.822 87.8235 303.633 70.7575C293.445 53.6916 282.056 35.4317 283.916 15.6729C283.923 15.6066 283.929 15.5336 283.943 15.4673C284.643 8.37033 288.877 3.26991 294.792 0H269.039C268.699 18.4323 279.355 34.7022 288.944 50.7665C299.132 67.8259 308.848 87.6709 303.453 106.78C296.385 131.732 237.858 102.483 211.979 99.4317C204.671 98.5761 216.28 101.62 209.312 99.4317C198.383 96.0026 197.171 127.454 186.536 122.838C179.914 119.959 173.286 117.1 166.572 114.56C163.791 113.505 160.95 112.517 158.076 111.602C158.07 111.602 158.07 111.602 158.063 111.595C138.766 105.48 117.661 103.099 99.8311 111.94C99.7111 112 99.5844 112.059 99.4643 112.119C79.2402 122.333 68.4046 144.42 59.9228 165.353C52.9147 182.658 54.017 216.028 50.563 234.281Z" fill="#F2F2F2"/>
<path d="M159.669 233.702C209.413 233.702 249.739 193.345 249.739 143.561C249.739 93.7778 209.413 53.4204 159.669 53.4204C109.924 53.4204 69.5986 93.7778 69.5986 143.561C69.5986 193.345 109.924 233.702 159.669 233.702Z" fill="white"/>
<path d="M159.411 234.281C70.2958 236.33 68.3418 193.959 68.3418 143.561C68.3418 93.1648 109.311 52.1636 159.669 52.1636C210.026 52.1636 250.995 93.1648 250.995 143.561C250.995 193.959 209.769 234.281 159.411 234.281ZM159.669 54.6785C110.696 54.6785 71.6794 94.5581 70.8547 143.561C70.0876 189.14 118.47 246.016 159.669 232.445C181.762 208.094 244.227 181.866 248.482 143.561C253.894 94.8513 208.641 54.6785 159.669 54.6785V54.6785Z" fill="#3F3D56"/>
<path d="M147.381 190.475C145.826 190.475 144.292 190.113 142.901 189.417C141.51 188.72 140.3 187.709 139.367 186.464L114.794 153.674C114.004 152.621 113.429 151.422 113.102 150.146C112.775 148.87 112.703 147.543 112.888 146.239C113.074 144.935 113.515 143.68 114.186 142.547C114.856 141.414 115.743 140.423 116.796 139.633C117.849 138.843 119.047 138.268 120.322 137.941C121.597 137.615 122.924 137.543 124.226 137.729C125.529 137.916 126.783 138.358 127.915 139.029C129.047 139.701 130.036 140.589 130.825 141.643L146.901 163.093L188.191 101.111C189.665 98.8995 191.957 97.3649 194.562 96.8442C197.167 96.3235 199.872 96.8593 202.082 98.334C204.292 99.8086 205.827 102.101 206.349 104.708C206.87 107.315 206.336 110.022 204.864 112.235L155.719 186.01C154.83 187.344 153.634 188.446 152.232 189.222C150.83 189.999 149.262 190.427 147.66 190.472C147.567 190.474 147.474 190.475 147.381 190.475Z" fill="#F2F2F2"/>
<path d="M9.01856 234.35C9.01835 234.436 9.03178 234.52 9.05806 234.599C9.08434 234.678 9.12295 234.75 9.17169 234.81C9.22042 234.87 9.2783 234.918 9.34201 234.951C9.40573 234.983 9.47401 235 9.54293 235H324.712C324.851 235 324.984 234.931 325.082 234.809C325.181 234.688 325.236 234.523 325.236 234.35C325.236 234.178 325.181 234.013 325.082 233.891C324.984 233.77 324.851 233.701 324.712 233.701H9.54293C9.47401 233.701 9.40573 233.718 9.34202 233.75C9.27831 233.783 9.22043 233.83 9.17169 233.891C9.12296 233.951 9.08434 234.023 9.05806 234.102C9.03178 234.181 9.01835 234.265 9.01856 234.35Z" fill="#CCCCCC"/>
<path d="M217.185 227.986H211.912L209.403 207.627L217.187 207.628L217.185 227.986Z" fill="#FFB6B6"/>
<path d="M217.373 233.493L201.154 233.492V233.287C201.154 231.611 201.82 230.005 203.003 228.82C204.187 227.635 205.793 226.97 207.467 226.969H207.467L210.43 224.72L215.957 226.97L217.373 226.97L217.373 233.493Z" fill="#2F2E41"/>
<path d="M194.258 202.755L189.386 204.776L179.275 186.932L186.466 183.949L194.258 202.755Z" fill="#FFB6B6"/>
<path d="M196.537 207.77L181.556 213.987L181.477 213.798C180.836 212.25 180.835 210.511 181.475 208.962C182.115 207.414 183.343 206.184 184.89 205.542L184.89 205.542L186.766 202.328L192.733 202.287L194.04 201.745L196.537 207.77Z" fill="#2F2E41"/>
<path d="M223.216 112.174L185.788 116.087L180.781 132.963L163.442 160.849C163.442 160.849 175.541 181.229 174.405 181.007C173.269 180.785 175.54 186.34 177.13 186.017C178.721 185.695 180.374 189.317 179.275 189.961C178.175 190.605 182.587 196.05 182.587 196.05L189.329 189.994C190.763 179.168 189.03 169.534 182.857 161.569L202.173 140.699L205.836 139.178L208.743 216.62L219.497 216.797C222.465 201.52 223.955 187.771 221.636 177.963C221.636 177.963 221.969 148.497 223.241 148.819C224.513 149.142 223.434 145.303 223.434 145.303C223.434 145.303 222.321 142.034 223.689 140.677C225.058 139.321 224.203 131.345 224.203 131.345C226.464 123.796 225.784 117.563 223.216 112.174Z" fill="#2F2E41"/>
<path d="M194.438 49.8966L204.785 47.2132L209.615 40.5464L221.086 41.9576L223.527 51.0512L231.693 55.795C231.693 55.795 227.18 103.571 228.253 106.195C229.327 108.818 233.177 108.602 229.889 111.983C226.601 115.365 226.166 114.003 226.929 117.685C227.692 121.366 233.253 125.263 226.929 125.224C220.605 125.185 182.445 124.64 183.535 120.275C184.625 115.911 184.608 117.019 186.252 114.282C187.896 111.546 189.003 113.075 188.449 109.037C187.896 104.999 188.441 102.271 188.441 100.089C188.441 97.9067 190.268 78.0761 190.268 78.0761L194.438 49.8966Z" fill="#E6E6E6"/>
<path d="M215.322 39.3141C222.035 39.3141 227.477 33.8677 227.477 27.1493C227.477 20.4308 222.035 14.9844 215.322 14.9844C208.609 14.9844 203.167 20.4308 203.167 27.1493C203.167 33.8677 208.609 39.3141 215.322 39.3141Z" fill="#FFB6B6"/>
<path d="M202.584 19.7868C203.652 20.65 203.407 24.8479 204.597 24.1637C205.786 23.4794 206.033 22.2541 207.403 22.2413C208.519 22.303 209.573 22.7799 210.356 23.5786C210.502 23.7104 210.64 23.8486 210.775 23.9853C210.898 23.9421 211.02 23.9029 211.148 23.8708C212.108 23.6361 213.122 23.779 213.98 24.27C213.188 24.3266 212.433 24.6312 211.823 25.1406C212.084 25.4338 212.349 25.7286 212.628 26.0011C214.956 28.2842 219.73 25.8529 222.939 25.3042C220.266 28.2252 220.793 29.8558 221.458 33.76L221.461 33.9733C221.597 33.0729 224.479 33.1178 224.004 34.3125C223.407 35.4927 222.661 36.5909 221.783 37.5797C225.709 34.8578 228.878 31.1058 229.579 26.5735C229.722 25.6205 230.003 24.6483 229.732 23.7191C229.616 23.2494 229.349 22.831 228.971 22.5295C228.593 22.2279 228.126 22.0602 227.643 22.0524C228.08 20.6621 228.133 19.1792 227.795 17.7613C227.458 16.3435 226.743 15.0436 225.726 14C224.709 12.9564 223.429 12.208 222.021 11.8344C220.613 11.4608 219.131 11.476 217.731 11.8783C216.454 12.3325 215.209 12.8705 214.003 13.4888C212.785 14.1095 211.407 14.3431 210.054 14.1582C209.21 13.9838 208.356 13.5468 207.53 13.7943C206.572 14.0817 206.16 15.0941 205.776 16.0713C206.497 16.3347 207.123 16.8071 207.574 17.4282C206.829 17.1531 206.016 17.12 205.251 17.3338C205.237 17.3362 205.223 17.34 205.21 17.345C204.343 18.9002 204.293 19.2815 202.584 19.7868Z" fill="#2F2E41"/>
<path d="M206.593 43.9548C200.367 43.4531 194.682 48.2183 192.09 53.9057C189.498 59.5931 189.329 66.045 189.203 72.2947L188.812 91.7216C188.754 94.5963 188.696 97.4716 188.553 100.343C188.479 103.138 188.128 105.918 187.505 108.643C186.235 113.643 183.443 118.098 180.691 122.461C187.736 124.592 194.9 126.304 202.147 127.589C205.765 115.875 209.426 103.824 208.536 91.5952C208.065 85.1242 206.326 78.8063 205.665 72.3519C204.729 63.2107 205.97 54.0022 207.208 44.8971" fill="#3F3D56"/>
<path d="M221.706 45.0474C227.873 46.0397 232.264 52.0196 233.432 58.1602C234.601 64.3009 233.235 70.6086 231.874 76.7094C230.464 83.0308 229.054 89.3522 227.644 95.6736C227.018 98.4799 226.392 101.287 225.85 104.11C225.323 106.853 227.53 110.371 227.555 113.164C227.602 118.323 226.601 122.572 228.238 127.464C220.889 127.859 213.524 127.82 206.18 127.346C205.444 115.107 204.748 102.531 208.514 90.8633C210.507 84.6892 213.695 78.9653 215.869 72.8527C218.948 64.1955 219.927 54.9555 220.884 45.8165" fill="#3F3D56"/>
<path d="M225.816 133.239C225.358 132.44 225.23 131.494 225.458 130.602C225.687 129.71 226.254 128.942 227.039 128.462C227.2 128.367 227.369 128.286 227.544 128.218L226.757 101.422L235.276 99.2524L232.027 130.471C232.25 131.217 232.219 132.016 231.94 132.743C231.661 133.47 231.149 134.084 230.485 134.489C230.105 134.716 229.684 134.866 229.245 134.93C228.807 134.994 228.361 134.971 227.932 134.862C227.503 134.753 227.099 134.561 226.744 134.297C226.389 134.032 226.089 133.7 225.863 133.319C225.847 133.293 225.831 133.266 225.816 133.239Z" fill="#FFB6B6"/>
<path d="M225.195 55.7521C225.195 55.7521 231.141 50.7197 236.145 60.7819C241.148 70.844 238.352 93.8312 237.648 95.058C236.944 96.2848 236.514 94.5758 236.9 97.846C237.213 100.506 235.348 100.173 236.017 100.741C237.781 102.237 232.841 102.408 235.378 103.726C237.916 105.045 226.559 105.292 226.559 105.292C226.559 105.292 225.185 104.31 226.139 100.608C226.675 98.5284 228.017 97.7677 226.586 96.8055C225.155 95.8432 228.064 92.8685 228.066 92.2158C228.068 91.5631 223.53 77.2872 223.53 77.2872L225.195 55.7521Z" fill="#3F3D56"/>
<path d="M175.991 179.71C174.435 179.71 172.901 179.348 171.51 178.651C170.119 177.955 168.909 176.944 167.976 175.699L143.404 142.909C142.614 141.856 142.039 140.657 141.712 139.381C141.385 138.105 141.312 136.777 141.498 135.474C141.684 134.17 142.125 132.915 142.795 131.782C143.465 130.648 144.352 129.658 145.405 128.868C146.458 128.078 147.656 127.503 148.931 127.176C150.206 126.849 151.533 126.777 152.836 126.964C154.139 127.151 155.392 127.592 156.524 128.264C157.656 128.935 158.645 129.823 159.434 130.878L175.511 152.328L216.8 90.3454C217.53 89.2498 218.468 88.3088 219.562 87.5761C220.655 86.8434 221.882 86.3333 223.172 86.0751C224.462 85.8169 225.79 85.8155 227.081 86.071C228.372 86.3265 229.6 86.834 230.694 87.5644C231.789 88.2948 232.73 89.2339 233.462 90.328C234.194 91.4221 234.703 92.6498 234.961 93.941C235.219 95.2322 235.221 96.5616 234.966 97.8534C234.71 99.1451 234.203 100.374 233.473 101.47L184.328 175.245C183.439 176.579 182.243 177.681 180.841 178.457C179.439 179.233 177.872 179.662 176.27 179.707C176.177 179.709 176.084 179.71 175.991 179.71Z" fill="#FFD600"/>
<path d="M194.722 128.585C195.223 127.813 195.404 126.876 195.225 125.972C195.046 125.069 194.522 124.271 193.764 123.748C193.609 123.644 193.445 123.554 193.274 123.477L195.539 96.7652L187.153 94.1274L188.673 125.478C188.41 126.211 188.396 127.01 188.635 127.751C188.873 128.492 189.35 129.134 189.991 129.575C190.358 129.823 190.77 129.995 191.204 130.084C191.638 130.172 192.085 130.174 192.52 130.089C192.954 130.004 193.368 129.835 193.737 129.59C194.106 129.345 194.423 129.03 194.671 128.663C194.688 128.637 194.705 128.611 194.722 128.585Z" fill="#FFB6B6"/>
<path d="M199.629 51.3055C199.629 51.3055 193.97 45.9519 188.418 55.722C182.867 65.492 184.389 88.5987 185.025 89.8626C185.66 91.1266 186.184 89.4439 185.618 92.6878C185.158 95.326 187.039 95.097 186.339 95.6267C184.495 97.0234 189.419 97.4668 186.812 98.6432C184.206 99.8195 195.532 100.694 195.532 100.694C195.532 100.694 196.957 99.7899 196.209 96.0405C195.789 93.9346 194.492 93.1009 195.974 92.2193C197.455 91.3377 194.715 88.2066 194.749 87.5547C194.783 86.9029 200.103 72.8999 200.103 72.8999L199.629 51.3055Z" fill="#3F3D56"/>
</svg>
