<svg width="56" height="56" viewBox="0 0 56 56" fill="none" xmlns="http://www.w3.org/2000/svg">
<g clip-path="url(#clip0_15302_71366)">
<path d="M37.41 28.58L28.41 19.58C28.05 19.22 27.55 19 27 19H20C18.9 19 18 19.9 18 21V28C18 28.55 18.22 29.05 18.59 29.42L27.59 38.42C27.95 38.78 28.45 39 29 39C29.55 39 30.05 38.78 30.41 38.41L37.41 31.41C37.78 31.05 38 30.55 38 30C38 29.45 37.77 28.94 37.41 28.58ZM29 37.01L20 28V21H27V20.99L36 29.99L29 37.01V37.01Z"/>
<path d="M22.5 25C23.3284 25 24 24.3284 24 23.5C24 22.6716 23.3284 22 22.5 22C21.6716 22 21 22.6716 21 23.5C21 24.3284 21.6716 25 22.5 25Z" />
</g>
<defs>
<clipPath id="clip0_15302_71366">
<rect width="24" height="24" fill="white" transform="translate(16 17)"/>
</clipPath>
</defs>
</svg>
