<svg width="328" height="200" viewBox="0 0 328 200" fill="none" xmlns="http://www.w3.org/2000/svg">
<g clip-path="url(#clip0_4906_63337)">
<rect x="328" y="200" width="328" height="200" rx="12" transform="rotate(-180 328 200)" fill="url(#paint0_linear_4906_63337)"/>
<path d="M62.0991 347.797C52.9063 348.705 46.1776 339.321 49.9875 330.906L220.997 -46.8244C224.807 -55.2398 236.298 -56.375 241.681 -48.8679L483.3 288.096C488.683 295.603 483.921 306.122 474.728 307.031L62.0991 347.797Z" fill="url(#paint1_linear_4906_63337)"/>
<path d="M255.641 178.927C264.833 179.835 271.562 170.451 267.752 162.036L134.679 -131.901C130.869 -140.316 119.378 -141.451 113.995 -133.944L-74.0247 128.269C-79.4077 135.776 -74.6454 146.296 -65.4525 147.204L255.641 178.927Z" fill="url(#paint2_linear_4906_63337)"/>
</g>
<defs>
<linearGradient id="paint0_linear_4906_63337" x1="656" y1="200" x2="328" y2="400" gradientUnits="userSpaceOnUse">
<stop stop-color="#E3727D"/>
<stop offset="1" stop-color="#8E54E9"/>
</linearGradient>
<linearGradient id="paint1_linear_4906_63337" x1="-44.7425" y1="573.981" x2="410.62" y2="290.375" gradientUnits="userSpaceOnUse">
<stop stop-color="#850707"/>
<stop offset="1" stop-color="#E36262" stop-opacity="0"/>
</linearGradient>
<linearGradient id="paint2_linear_4906_63337" x1="345.111" y1="359.92" x2="-18.4405" y2="133.494" gradientUnits="userSpaceOnUse">
<stop stop-color="#850707"/>
<stop offset="1" stop-color="#8E54E9" stop-opacity="0"/>
</linearGradient>
<clipPath id="clip0_4906_63337">
<rect x="328" y="200" width="328" height="200" rx="12" transform="rotate(-180 328 200)" fill="white"/>
</clipPath>
</defs>
</svg>
