<svg width="48" height="48" viewBox="0 0 48 48" fill="none" xmlns="http://www.w3.org/2000/svg">
<g filter="url(#filter0_d_14899_89070)">
<circle cx="24" cy="20" r="20" transform="rotate(90 24 20)" fill="white"/>
</g>
<g clip-path="url(#clip0_14899_89070)">
<path d="M35 21V19H32.94C32.48 14.83 29.17 11.52 25 11.06V9H23V11.06C22.02 11.17 21.09 11.44 20.23 11.84L21.76 13.37C22.46 13.13 23.22 13 24 13C27.87 13 31 16.13 31 20C31 20.79 30.87 21.54 30.63 22.24L32.16 23.77C32.56 22.91 32.83 21.98 32.94 21H35ZM16.41 10.86L15 12.27L17.04 14.31C15.97 15.62 15.26 17.23 15.06 19H13V21H15.06C15.52 25.17 18.83 28.48 23 28.94V31H25V28.94C26.77 28.74 28.38 28.03 29.69 26.96L31.73 29L33.14 27.59L16.41 10.86ZM24 27C20.13 27 17 23.87 17 20C17 18.39 17.55 16.91 18.46 15.73L28.27 25.54C27.09 26.45 25.61 27 24 27Z" fill="#F2453D"/>
</g>
<defs>
<filter id="filter0_d_14899_89070" x="0" y="0" width="48" height="48" filterUnits="userSpaceOnUse" color-interpolation-filters="sRGB">
<feFlood flood-opacity="0" result="BackgroundImageFix"/>
<feColorMatrix in="SourceAlpha" type="matrix" values="0 0 0 0 0 0 0 0 0 0 0 0 0 0 0 0 0 0 127 0" result="hardAlpha"/>
<feOffset dy="4"/>
<feGaussianBlur stdDeviation="2"/>
<feComposite in2="hardAlpha" operator="out"/>
<feColorMatrix type="matrix" values="0 0 0 0 0 0 0 0 0 0 0 0 0 0 0 0 0 0 0.12 0"/>
<feBlend mode="normal" in2="BackgroundImageFix" result="effect1_dropShadow_14899_89070"/>
<feBlend mode="normal" in="SourceGraphic" in2="effect1_dropShadow_14899_89070" result="shape"/>
</filter>
<clipPath id="clip0_14899_89070">
<rect width="24" height="24" fill="white" transform="translate(12 8)"/>
</clipPath>
</defs>
</svg>
