<svg width="24" height="24" viewBox="0 0 24 24" fill="none" xmlns="http://www.w3.org/2000/svg">
<path d="M16.1128 8.22938C15.7288 7.84541 15.1528 7.84541 14.7688 8.22938L10.2568 12.7414L8.43285 10.9173C8.04875 10.5333 7.47286 10.5333 7.08875 10.9173C6.70479 11.3013 6.70479 11.8773 7.08875 12.2613L9.58478 14.7573C9.96875 15.1413 10.5448 15.1413 10.9287 14.7573L16.1127 9.57328C16.4967 9.18932 16.4967 8.61328 16.1127 8.22931L16.1128 8.22938Z" fill="black"/>
<path d="M21.2 4.48573C21.2 3.7178 20.336 3.2378 19.664 3.7178C17.456 5.34986 15.152 4.38986 12.176 2.18176C11.888 1.98971 11.312 1.89382 10.928 2.18176C8.0479 4.29369 5.74403 5.34969 3.53603 3.62162C2.86397 3.14162 2 3.62162 2 4.48573C2.38397 18.5977 10.256 20.8057 11.312 21.0937C11.5041 21.1898 11.696 21.1898 11.888 21.0937C12.9439 20.8058 20.816 18.5977 21.2 4.48573H21.2ZM4.016 6.11766C6.60793 7.07766 9.2 5.73369 11.6 4.00573C14 5.73366 16.592 7.0778 19.184 6.1178C18.4161 16.9658 12.656 18.8858 11.6 19.1738C10.544 18.8858 4.784 16.9659 4.016 6.1178V6.11766Z" fill="black"/>
</svg>
