<svg width="10" height="4" viewBox="0 0 10 4" fill="none" xmlns="http://www.w3.org/2000/svg">
<g clip-path="url(#clip0_18700_1940)" filter="url(#filter0_d_18700_1940)">
<path d="M4.49356 2.7797H3.85596L4.25476 0.308594H4.89232L4.49356 2.7797Z" fill="white"/>
<path d="M6.8052 0.368877C6.67944 0.318877 6.47997 0.263672 6.23333 0.263672C5.60368 0.263672 5.16028 0.600146 5.15756 1.0812C5.15233 1.43612 5.47502 1.63326 5.71636 1.7516C5.96304 1.87253 6.0469 1.95146 6.0469 2.05925C6.04438 2.22479 5.84756 2.3011 5.66399 2.3011C5.40944 2.3011 5.27304 2.26176 5.06576 2.16966L4.9818 2.13018L4.89258 2.68489C5.04212 2.75316 5.31763 2.81374 5.60368 2.8164C6.27269 2.8164 6.70824 2.48513 6.7134 1.97249C6.71594 1.69119 6.54555 1.47564 6.1782 1.29951C5.9552 1.18644 5.81863 1.1102 5.81863 0.994515C5.82124 0.889345 5.93414 0.781625 6.18587 0.781625C6.39315 0.776349 6.54545 0.826278 6.66082 0.876243L6.71849 0.902483L6.8052 0.368877V0.368877Z" fill="white"/>
<path d="M7.65249 1.90428C7.70499 1.76231 7.90704 1.21288 7.90704 1.21288C7.90439 1.21816 7.95945 1.0683 7.99093 0.9763L8.03549 1.18923C8.03549 1.18923 8.15623 1.78073 8.18245 1.90428C8.0828 1.90428 7.77842 1.90428 7.65249 1.90428ZM8.43952 0.308594H7.94634C7.79425 0.308594 7.67871 0.353247 7.61309 0.513623L6.66602 2.77967H7.33503C7.33503 2.77967 7.44517 2.47467 7.46885 2.40899C7.54224 2.40899 8.19305 2.40899 8.28747 2.40899C8.30577 2.49574 8.36355 2.77967 8.36355 2.77967H8.9539L8.43952 0.308594V0.308594Z" fill="white"/>
<path d="M3.32369 0.308594L2.69927 1.99365L2.63103 1.6519C2.51559 1.25757 2.15354 0.829132 1.74951 0.616102L2.32146 2.77708H2.9957L3.9979 0.308594H3.32369V0.308594Z" fill="white"/>
<path d="M2.11934 0.308594H1.0935L1.08301 0.358523C1.88322 0.563587 2.41319 1.05789 2.63093 1.65201L2.40792 0.516313C2.37121 0.358488 2.25838 0.3138 2.11934 0.308594Z" fill="white"/>
</g>
<defs>
<filter id="filter0_d_18700_1940" x="-2.91748" y="0.265625" width="15.8711" height="10.5527" filterUnits="userSpaceOnUse" color-interpolation-filters="sRGB">
<feFlood flood-opacity="0" result="BackgroundImageFix"/>
<feColorMatrix in="SourceAlpha" type="matrix" values="0 0 0 0 0 0 0 0 0 0 0 0 0 0 0 0 0 0 127 0" result="hardAlpha"/>
<feOffset dy="4"/>
<feGaussianBlur stdDeviation="2"/>
<feComposite in2="hardAlpha" operator="out"/>
<feColorMatrix type="matrix" values="0 0 0 0 0 0 0 0 0 0 0 0 0 0 0 0 0 0 0.25 0"/>
<feBlend mode="normal" in2="BackgroundImageFix" result="effect1_dropShadow_18700_1940"/>
<feBlend mode="normal" in="SourceGraphic" in2="effect1_dropShadow_18700_1940" result="shape"/>
</filter>
<clipPath id="clip0_18700_1940">
<rect width="7.87091" height="2.55273" fill="white" transform="translate(1.08252 0.265625)"/>
</clipPath>
</defs>
</svg>
