<svg width="54" height="54" viewBox="0 0 54 54" fill="none" xmlns="http://www.w3.org/2000/svg">
<rect x="1.5" y="1.5" width="51" height="51" rx="25.5" fill="#FFD600"/>
<g clip-path="url(#clip0_17034_87598)">
<path d="M35.575 23.7127C34.7817 19.6877 31.2467 16.666 27 16.666C23.6283 16.666 20.7 18.5793 19.2417 21.3793C15.73 21.7527 13 24.7277 13 28.3327C13 32.1944 16.1383 35.3327 20 35.3327H35.1667C38.3867 35.3327 41 32.7194 41 29.4993C41 26.4193 38.6083 23.9227 35.575 23.7127ZM35.1667 32.9993H20C17.4217 32.9993 15.3333 30.911 15.3333 28.3327C15.3333 25.941 17.1183 23.946 19.4867 23.701L20.735 23.5727L21.3183 22.4643C22.4267 20.3293 24.5967 18.9993 27 18.9993C30.0567 18.9993 32.6933 21.1693 33.2883 24.1677L33.6383 25.9177L35.4233 26.046C37.2433 26.1627 38.6667 27.691 38.6667 29.4993C38.6667 31.4243 37.0917 32.9993 35.1667 32.9993ZM22.3333 27.166H25.3083V30.666H28.6917V27.166H31.6667L27 22.4993L22.3333 27.166Z" fill="white"/>
</g>
<rect x="1.5" y="1.5" width="51" height="51" rx="25.5" stroke="#FFF9C4" stroke-width="3"/>
<defs>
<clipPath id="clip0_17034_87598">
<rect width="28" height="28" fill="white" transform="translate(13 12)"/>
</clipPath>
</defs>
</svg>