<svg width="400" height="240" viewBox="0 0 400 240" fill="none" xmlns="http://www.w3.org/2000/svg">
<g clip-path="url(#clip0_562_8771)">
<rect width="400" height="240" rx="8" fill="white"/>
<path d="M478.217 75.5291L377.044 28.6226C372.167 26.3614 367.363 31.8793 370.275 36.3983L413.779 103.912C416.938 108.815 411.109 114.528 406.27 111.27L342.624 68.4178C337.983 65.2934 332.257 70.4653 334.894 75.3991L373.868 148.322C376.553 153.345 370.595 158.54 365.984 155.196L305.789 111.535C301.072 108.114 295.05 113.606 298.023 118.618L336.908 184.168C339.828 189.091 334.043 194.555 329.295 191.358L269.597 151.164C264.672 147.848 258.805 153.801 262.192 158.677L301.768 215.654C305.096 220.446 299.467 226.358 294.518 223.268L233.701 185.3C228.701 182.178 223.054 188.231 226.515 193.003L266.662 248.354C270.128 253.133 264.461 259.19 259.463 256.049L201.147 219.41C196.118 216.251 190.442 222.39 193.985 227.156L250.528 303.217" stroke="#6DB720" stroke-width="0.670833" stroke-linecap="round"/>
<path d="M496.244 93.5545L395.071 46.648C390.194 44.3867 385.391 49.9047 388.303 54.4237L431.806 121.937C434.965 126.84 429.136 132.553 424.297 129.296L360.651 86.4432C356.011 83.3187 350.284 88.4906 352.921 93.4245L391.896 166.348C394.58 171.371 388.622 176.566 384.012 173.221L323.817 129.561C319.1 126.139 313.077 131.631 316.05 136.643L354.935 202.194C357.856 207.116 352.071 212.58 347.323 209.383L287.625 169.189C282.7 165.873 276.833 171.826 280.22 176.702L319.795 233.68C323.123 238.471 317.494 244.383 312.546 241.294L251.729 203.325C246.728 200.203 241.081 206.257 244.542 211.029L284.689 266.379C288.155 271.158 282.489 277.215 277.49 274.074L219.174 237.436C214.145 234.276 208.469 240.415 212.012 245.182L268.556 321.243" stroke="#6DB720" stroke-width="0.670833"/>
<path d="M514.267 111.58L413.095 64.6734C408.217 62.4121 403.414 67.93 406.326 72.4491L449.829 139.962C452.989 144.866 447.159 150.579 442.321 147.321L378.675 104.469C374.034 101.344 368.307 106.516 370.944 111.45L409.919 184.373C412.604 189.396 406.646 194.591 402.035 191.247L341.84 147.586C337.123 144.165 331.101 149.657 334.074 154.668L372.959 220.219C375.879 225.142 370.094 230.605 365.346 227.409L305.648 187.215C300.723 183.899 294.856 189.852 298.243 194.728L337.819 251.705C341.147 256.497 335.518 262.409 330.569 259.319L269.752 221.351C264.752 218.229 259.105 224.282 262.566 229.054L302.713 284.404C306.179 289.183 300.512 295.24 295.513 292.1L237.197 255.461C232.169 252.302 226.492 258.441 230.036 263.207L286.579 339.268" stroke="#6DB720" stroke-width="0.670833"/>
<path d="M532.295 129.605L431.122 82.6988C426.245 80.4375 421.442 85.9554 424.353 90.4745L467.857 157.988C471.016 162.891 465.187 168.604 460.348 165.346L396.702 122.494C392.062 119.37 386.335 124.541 388.972 129.475L427.946 202.398C430.631 207.422 424.673 212.616 420.062 209.272L359.868 165.612C355.151 162.19 349.128 167.682 352.101 172.694L390.986 238.244C393.907 243.167 388.121 248.631 383.373 245.434L323.676 205.24C318.751 201.924 312.884 207.877 316.271 212.753L355.846 269.731C359.174 274.522 353.545 280.434 348.596 277.345L287.779 239.376C282.779 236.254 277.132 242.307 280.593 247.079L320.74 302.43C324.206 307.209 318.54 313.266 313.541 310.125L255.225 273.486C250.196 270.327 244.52 276.466 248.063 281.232L304.606 357.294" stroke="#6DB720" stroke-width="0.670833"/>
<path d="M550.318 147.631L449.145 100.724C444.268 98.4629 439.465 103.981 442.377 108.5L485.88 176.013C489.04 180.917 483.21 186.63 478.372 183.372L414.725 140.519C410.085 137.395 404.358 142.567 406.995 147.501L445.97 220.424C448.655 225.447 442.696 230.642 438.086 227.298L377.891 183.637C373.174 180.216 367.151 185.708 370.124 190.719L409.01 256.27C411.93 261.193 406.145 266.656 401.397 263.459L341.699 223.265C336.774 219.949 330.907 225.902 334.294 230.779L373.87 287.756C377.198 292.547 371.568 298.459 366.62 295.37L305.803 257.401C300.802 254.28 295.155 260.333 298.616 265.105L338.763 320.455C342.23 325.234 336.563 331.291 331.564 328.15L273.248 291.512C268.219 288.352 262.543 294.492 266.086 299.258L322.63 375.319" stroke="#6DB720" stroke-width="0.670833"/>
<path d="M568.346 165.656L467.173 118.75C462.296 116.488 457.492 122.006 460.404 126.525L503.907 194.039C507.067 198.942 501.238 204.655 496.399 201.397L432.753 158.545C428.112 155.42 422.385 160.592 425.022 165.526L463.997 238.449C466.682 243.472 460.724 248.667 456.113 245.323L395.918 201.662C391.201 198.241 385.179 203.733 388.152 208.745L427.037 274.295C429.957 279.218 424.172 284.682 419.424 281.485L359.726 241.291C354.801 237.975 348.934 243.928 352.321 248.804L391.897 305.781C395.225 310.573 389.596 316.485 384.647 313.395L323.83 275.427C318.83 272.305 313.183 278.358 316.644 283.13L356.791 338.481C360.257 343.259 354.59 349.316 349.592 346.176L291.276 309.537C286.247 306.378 280.57 312.517 284.114 317.283L340.657 393.344" stroke="#6DB720" stroke-width="0.670833"/>
<path d="M586.369 183.681L485.196 136.775C480.319 134.514 475.516 140.032 478.428 144.551L521.931 212.064C525.09 216.967 519.261 222.68 514.422 219.422L450.776 176.57C446.136 173.446 440.409 178.618 443.046 183.551L482.021 256.475C484.705 261.498 478.747 266.693 474.137 263.348L413.942 219.688C409.225 216.266 403.202 221.758 406.175 226.77L445.06 292.32C447.981 297.243 442.196 302.707 437.448 299.51L377.75 259.316C372.825 256 366.958 261.953 370.345 266.829L409.92 323.807C413.248 328.598 407.619 334.51 402.671 331.421L341.854 293.452C336.853 290.33 331.206 296.384 334.667 301.156L374.814 356.506C378.28 361.285 372.614 367.342 367.615 364.201L309.299 327.563C304.27 324.403 298.594 330.542 302.137 335.309L358.681 411.37" stroke="#6DB720" stroke-width="0.670833"/>
<path d="M604.392 201.707L503.22 154.8C498.342 152.539 493.539 158.057 496.451 162.576L539.954 230.089C543.114 234.993 537.284 240.706 532.446 237.448L468.8 194.595C464.159 191.471 458.432 196.643 461.069 201.577L500.044 274.5C502.729 279.523 496.771 284.718 492.16 281.374L431.965 237.713C427.248 234.292 421.226 239.784 424.199 244.795L463.084 310.346C466.004 315.269 460.219 320.732 455.471 317.536L395.773 277.342C390.848 274.026 384.981 279.978 388.368 284.855L427.944 341.832C431.272 346.624 425.643 352.536 420.694 349.446L359.877 311.478C354.877 308.356 349.23 314.409 352.691 319.181L392.838 374.531C396.304 379.31 390.637 385.367 385.638 382.227L327.322 345.588C322.294 342.428 316.617 348.568 320.161 353.334L376.704 429.395" stroke="#6DB720" stroke-width="0.670833"/>
<path d="M622.42 219.732L521.247 172.826C516.37 170.564 511.567 176.082 514.478 180.601L557.982 248.115C561.141 253.018 555.312 258.731 550.473 255.473L486.827 212.621C482.187 209.496 476.46 214.668 479.097 219.602L518.071 292.525C520.756 297.549 514.798 302.743 510.187 299.399L449.993 255.738C445.276 252.317 439.253 257.809 442.226 262.821L481.111 328.371C484.032 333.294 478.246 338.758 473.498 335.561L413.801 295.367C408.876 292.051 403.009 298.004 406.396 302.88L445.971 359.858C449.299 364.649 443.67 370.561 438.721 367.471L377.904 329.503C372.904 326.381 367.257 332.434 370.718 337.206L410.865 392.557C414.331 397.336 408.665 403.393 403.666 400.252L345.35 363.613C340.321 360.454 334.645 366.593 338.188 371.359L394.731 447.421" stroke="#6DB720" stroke-width="0.670833"/>
<path d="M640.443 237.757L539.27 190.85C534.393 188.589 529.59 194.107 532.502 198.626L576.005 266.139C579.165 271.043 573.335 276.756 568.497 273.498L504.85 230.645C500.21 227.521 494.483 232.693 497.12 237.627L536.095 310.55C538.78 315.573 532.821 320.768 528.211 317.424L468.016 273.763C463.299 270.342 457.276 275.834 460.249 280.845L499.135 346.396C502.055 351.319 496.27 356.782 491.522 353.585L431.824 313.391C426.899 310.075 421.032 316.028 424.419 320.905L463.995 377.882C467.323 382.673 461.693 388.585 456.745 385.496L395.928 347.527C390.927 344.406 385.28 350.459 388.741 355.231L428.888 410.581C432.355 415.36 426.688 421.417 421.689 418.276L363.373 381.638C358.344 378.478 352.668 384.618 356.211 389.384L412.755 465.445" stroke="#6DB720" stroke-width="0.670833"/>
<path d="M658.471 255.782L557.298 208.876C552.421 206.614 547.617 212.132 550.529 216.651L594.032 284.165C597.192 289.068 591.363 294.781 586.524 291.523L522.878 248.671C518.237 245.546 512.51 250.718 515.147 255.652L554.122 328.575C556.807 333.598 550.849 338.793 546.238 335.449L486.043 291.788C481.326 288.367 475.304 293.859 478.277 298.871L517.162 364.421C520.082 369.344 514.297 374.808 509.549 371.611L449.851 331.417C444.926 328.101 439.059 334.054 442.446 338.93L482.022 395.907C485.35 400.699 479.721 406.611 474.772 403.521L413.955 365.553C408.955 362.431 403.308 368.484 406.769 373.256L446.916 428.607C450.382 433.385 444.715 439.442 439.717 436.302L381.401 399.663C376.372 396.504 370.695 402.643 374.239 407.409L430.782 483.47" stroke="#6DB720" stroke-width="0.670833"/>
<path d="M676.494 273.807L575.321 226.901C570.444 224.64 565.641 230.158 568.553 234.677L612.056 302.19C615.215 307.093 609.386 312.806 604.547 309.548L540.901 266.696C536.261 263.572 530.534 268.744 533.171 273.677L572.146 346.6C574.83 351.624 568.872 356.819 564.262 353.474L504.067 309.814C499.35 306.392 493.327 311.884 496.3 316.896L535.185 382.446C538.106 387.369 532.321 392.833 527.573 389.636L467.875 349.442C462.95 346.126 457.083 352.079 460.47 356.955L500.045 413.933C503.373 418.724 497.744 424.636 492.796 421.547L431.979 383.578C426.978 380.456 421.331 386.51 424.792 391.282L464.939 446.632C468.405 451.411 462.739 457.468 457.74 454.327L399.424 417.689C394.395 414.529 388.719 420.668 392.262 425.435L448.806 501.496" stroke="#6DB720" stroke-width="0.670833"/>
<path d="M694.521 291.833L593.349 244.926C588.471 242.665 583.668 248.183 586.58 252.702L630.083 320.215C633.243 325.119 627.413 330.832 622.575 327.574L558.929 284.721C554.288 281.597 548.561 286.769 551.198 291.703L590.173 364.626C592.858 369.649 586.9 374.844 582.289 371.5L522.094 327.839C517.377 324.418 511.354 329.91 514.327 334.921L553.213 400.472C556.133 405.395 550.348 410.858 545.6 407.662L485.902 367.468C480.977 364.152 475.11 370.104 478.497 374.981L518.073 431.958C521.401 436.75 515.772 442.662 510.823 439.572L450.006 401.604C445.005 398.482 439.358 404.535 442.82 409.307L482.967 464.657C486.433 469.436 480.766 475.493 475.767 472.353L417.451 435.714C412.423 432.554 406.746 438.694 410.289 443.46L466.833 519.521" stroke="#6DB720" stroke-width="0.670833"/>
</g>
<rect x="0.5" y="0.5" width="399" height="239" rx="7.5" stroke="#F5F5F5"/>
<defs>
<clipPath id="clip0_562_8771">
<rect width="400" height="240" rx="8" fill="white"/>
</clipPath>
</defs>
</svg>
