<svg width="8" height="14" viewBox="0 0 8 14" fill="none" xmlns="http://www.w3.org/2000/svg">
<path fill-rule="evenodd" clip-rule="evenodd" d="M7.35408 13.354C7.30764 13.4005 7.25246 13.4375 7.19172 13.4627C7.13097 13.4879 7.06585 13.5009 7.00008 13.5009C6.93432 13.5009 6.86919 13.4879 6.80845 13.4627C6.7477 13.4375 6.69253 13.4005 6.64608 13.354L0.646081 7.35396C0.599518 7.30752 0.562575 7.25234 0.537369 7.19159C0.512163 7.13085 0.499187 7.06573 0.499187 6.99996C0.499187 6.93419 0.512163 6.86907 0.537369 6.80833C0.562575 6.74758 0.599518 6.69241 0.646081 6.64596L6.64608 0.645961C6.73997 0.552074 6.86731 0.49933 7.00008 0.49933C7.13286 0.49933 7.2602 0.552074 7.35408 0.645961C7.44797 0.739847 7.50071 0.867186 7.50071 0.999961C7.50071 1.13274 7.44797 1.26007 7.35408 1.35396L1.70708 6.99996L7.35408 12.646C7.40065 12.6924 7.43759 12.7476 7.4628 12.8083C7.488 12.8691 7.50098 12.9342 7.50098 13C7.50098 13.0657 7.488 13.1308 7.4628 13.1916C7.43759 13.2523 7.40065 13.3075 7.35408 13.354Z" fill="#A0A0A6"/>
</svg>
