<svg width="203" height="300" viewBox="0 0 203 300" fill="none" xmlns="http://www.w3.org/2000/svg">
<ellipse cx="25" cy="79" rx="14" ry="14" transform="rotate(90 25 79)" fill="#D6E7FF"/>
<ellipse cx="52" cy="14" rx="14" ry="14" transform="rotate(90 52 14)" fill="#F5F5F5"/>
<ellipse cx="14.5" cy="222" rx="14" ry="14.5" transform="rotate(90 14.5 222)" fill="#F5F5F5"/>
<ellipse cx="69.262" cy="50.2591" rx="2.07254" ry="1.63934" transform="rotate(90 69.262 50.2591)" fill="#0B6CFF"/>
<circle cx="113.5" cy="17.5" r="8.5" transform="rotate(90 113.5 17.5)" fill="#B3B3B3"/>
<ellipse cx="194" cy="232" rx="9" ry="9" transform="rotate(90 194 232)" fill="#E6E6E6"/>
<ellipse cx="52.5" cy="146.5" rx="4.5" ry="4.5" transform="rotate(90 52.5 146.5)" fill="#AAB9CE"/>
<ellipse cx="74.5905" cy="295.855" rx="4.14508" ry="3.27869" transform="rotate(90 74.5905 295.855)" fill="#E7F1FF"/>
<ellipse cx="137" cy="228" rx="8" ry="8" transform="rotate(90 137 228)" fill="#86868E"/>
<ellipse cx="49" cy="259" rx="8" ry="8" transform="rotate(90 49 259)" fill="#D6E7FF"/>
</svg>
