<svg width="25" height="25" viewBox="0 0 25 25" fill="none" xmlns="http://www.w3.org/2000/svg">
<g clip-path="url(#clip0_10694_46596)">
<path d="M4.16699 20.8333H8.33366L19.2712 9.89582C19.8237 9.34329 20.1341 8.59389 20.1341 7.81249C20.1341 7.03109 19.8237 6.28169 19.2712 5.72916C18.7186 5.17662 17.9692 4.86621 17.1878 4.86621C16.4064 4.86621 15.657 5.17662 15.1045 5.72916L4.16699 16.6667V20.8333Z" stroke="white" stroke-width="1.5" stroke-linecap="round" stroke-linejoin="round"/>
<path d="M14.0625 6.77084L18.2292 10.9375" stroke="white" stroke-width="1.5" stroke-linecap="round" stroke-linejoin="round"/>
<path fill-rule="evenodd" clip-rule="evenodd" d="M2.5 20.25C2.5 20.8467 2.73705 21.419 3.15901 21.841C3.58097 22.2629 4.15326 22.5 4.75 22.5H21.25C21.8467 22.5 22.419 22.2629 22.841 21.841C23.2629 21.419 23.5 20.8467 23.5 20.25V11.25C23.5 11.0511 23.421 10.8603 23.2803 10.7197C23.1397 10.579 22.9489 10.5 22.75 10.5C22.5511 10.5 22.3603 10.579 22.2197 10.7197C22.079 10.8603 22 11.0511 22 11.25V20.25C22 20.4489 21.921 20.6397 21.7803 20.7803C21.6397 20.921 21.4489 21 21.25 21H4.75C4.55109 21 4.36032 20.921 4.21967 20.7803C4.07902 20.6397 4 20.4489 4 20.25V3.75C4 3.55109 4.07902 3.36032 4.21967 3.21967C4.36032 3.07902 4.55109 3 4.75 3H14.5C14.6989 3 14.8897 2.92098 15.0303 2.78033C15.171 2.63968 15.25 2.44891 15.25 2.25C15.25 2.05109 15.171 1.86032 15.0303 1.71967C14.8897 1.57902 14.6989 1.5 14.5 1.5H4.75C4.15326 1.5 3.58097 1.73705 3.15901 2.15901C2.73705 2.58097 2.5 3.15326 2.5 3.75V20.25Z" fill="white"/>
</g>
<defs>
<clipPath id="clip0_10694_46596">
<rect width="25" height="25" fill="white"/>
</clipPath>
</defs>
</svg>