<svg width="22" height="14" viewBox="0 0 22 14" fill="none" xmlns="http://www.w3.org/2000/svg">
<path fill-rule="evenodd" clip-rule="evenodd" d="M0 6.99997C0 6.80106 0.0790176 6.61029 0.21967 6.46964C0.360322 6.32899 0.551088 6.24997 0.75 6.24997H18.4395L13.719 1.53097C13.5782 1.39014 13.4991 1.19913 13.4991 0.999971C13.4991 0.800807 13.5782 0.609801 13.719 0.468971C13.8598 0.328141 14.0508 0.249023 14.25 0.249023C14.4492 0.249023 14.6402 0.328141 14.781 0.468971L20.781 6.46897C20.8508 6.53864 20.9063 6.6214 20.9441 6.71252C20.9819 6.80364 21.0013 6.90132 21.0013 6.99997C21.0013 7.09862 20.9819 7.1963 20.9441 7.28742C20.9063 7.37854 20.8508 7.4613 20.781 7.53097L14.781 13.531C14.6402 13.6718 14.4492 13.7509 14.25 13.7509C14.0508 13.7509 13.8598 13.6718 13.719 13.531C13.5782 13.3901 13.4991 13.1991 13.4991 13C13.4991 12.8008 13.5782 12.6098 13.719 12.469L18.4395 7.74997H0.75C0.551088 7.74997 0.360322 7.67095 0.21967 7.5303C0.0790176 7.38965 0 7.19888 0 6.99997V6.99997Z" fill="#0B6CFF"/>
</svg>
