<svg width="656" height="600" viewBox="0 0 656 600" fill="none" xmlns="http://www.w3.org/2000/svg">
<circle cx="629" cy="453.676" r="27" transform="rotate(90 629 453.676)" fill="#D6E7FF"/>
<circle cx="180" cy="27.6758" r="27" transform="rotate(90 180 27.6758)" fill="#F5F5F5"/>
<circle cx="27" cy="449.676" r="27" transform="rotate(90 27 449.676)" fill="#F5F5F5"/>
<circle cx="169" cy="117.676" r="4" transform="rotate(90 169 117.676)" fill="#0B6CFF"/>
<circle cx="271" cy="54.6758" r="16" transform="rotate(90 271 54.6758)" fill="#B3B3B3"/>
<circle cx="470" cy="468.676" r="18" transform="rotate(90 470 468.676)" fill="#E6E6E6"/>
<circle cx="124" cy="303.676" r="8" transform="rotate(90 124 303.676)" fill="#AAB9CE"/>
<circle cx="182" cy="591.676" r="8" transform="rotate(90 182 591.676)" fill="#E7F1FF"/>
<circle cx="303" cy="460.676" r="16" transform="rotate(90 303 460.676)" fill="#86868E"/>
<circle cx="108" cy="520.676" r="16" transform="rotate(90 108 520.676)" fill="#D6E7FF"/>
</svg>
