<svg width="48" height="48" viewBox="0 0 48 48" role="mainLogo" fill="none" xmlns="http://www.w3.org/2000/svg">
<g clip-path="url(#clip0_227_545)">
<rect width="48" height="48" rx="12" fill="#005EEB"/>
<path fill-rule="evenodd" clip-rule="evenodd" d="M10.5 48C31.2107 48 48 31.2107 48 10.5C48 7.27898 47.5939 4.15281 46.8301 1.16989C43.8472 0.406103 40.721 0 37.5 0C16.7893 0 0 16.7893 0 37.5C0 40.721 0.406103 43.8472 1.16989 46.8301C4.15281 47.5939 7.27898 48 10.5 48Z" fill="#0B6CFF"/>
<path fill-rule="evenodd" clip-rule="evenodd" d="M27.5465 13.7497C27.5994 13.3834 27.9322 13.1 28.3392 13.1H28.3393C28.7831 13.1 29.1429 13.4358 29.1429 13.85C29.1429 14.2642 28.7831 14.6 28.3393 14.6C28.313 14.6 28.2878 14.5968 28.2625 14.5935C28.2549 14.5925 28.2473 14.5915 28.2398 14.5907L27.5358 17H20.4643L19.7603 14.5907C19.7522 14.5916 19.7442 14.5926 19.7362 14.5936C19.7113 14.5968 19.6865 14.6 19.6607 14.6C19.217 14.6 18.8572 14.2642 18.8572 13.85C18.8572 13.4358 19.217 13.1 19.6607 13.1C20.0677 13.1 20.4004 13.3834 20.4534 13.7497C21.2844 13.7062 22.5051 13.4266 23.4797 12.3173C23.3077 12.1797 23.1964 11.978 23.1964 11.75C23.1964 11.3358 23.5562 11 24 11C24.4438 11 24.8035 11.3358 24.8035 11.75C24.8035 11.978 24.6923 12.1797 24.5202 12.3173C25.4949 13.4266 26.7155 13.7062 27.5465 13.7497ZM24.2571 15.78L24.8196 15.08C24.9053 14.9734 24.9053 14.8268 24.8196 14.7201L24.2571 14.0201C24.1285 13.8602 23.8714 13.8602 23.7429 14.0201L23.1804 14.7201C23.0947 14.8267 23.0947 14.9733 23.1804 15.08L23.7429 15.78C23.8714 15.9399 24.1285 15.9399 24.2571 15.78ZM20.5953 17.8571C18.8614 17.8571 17.4978 18.2118 16.5047 18.9212C15.5116 19.6305 15.015 20.7182 15.015 22.1842C15.015 23.1143 15.2279 23.9182 15.6535 24.5961C16.0537 25.2187 16.6074 25.7158 17.3143 26.0875L17.2614 26.1094C16.3155 26.4877 15.5668 27.0236 15.015 27.7172C14.4476 28.3951 14.1638 29.2069 14.1638 30.1527C14.1638 31.0197 14.3293 31.7606 14.6604 32.3754C14.9756 32.9901 15.4091 33.4946 15.9609 33.8887C16.4968 34.267 17.1116 34.5507 17.8052 34.7399C18.483 34.9133 19.1924 35 19.9333 35H28.0673C28.8082 35 29.5175 34.9133 30.1953 34.7399C30.8889 34.5507 31.5037 34.267 32.0397 33.8887C32.5914 33.4946 33.0249 32.9901 33.3402 32.3754C33.6712 31.7606 33.8367 31.0197 33.8367 30.1527C33.8367 29.2069 33.553 28.3951 32.9855 27.7172C32.4338 27.0236 31.685 26.4877 30.7392 26.1094L30.6862 26.0875C31.3932 25.7158 31.9468 25.2187 32.3471 24.5961C32.7727 23.9182 32.9855 23.1143 32.9855 22.1842C32.9855 20.7182 32.4889 19.6305 31.4958 18.9212C30.5027 18.2118 29.1392 17.8571 27.4052 17.8571H20.5953ZM20.1461 25.2818C19.2476 25.2818 18.5934 25.0296 18.1835 24.5251C17.7737 24.0049 17.5687 23.398 17.5687 22.7044C17.5687 21.8532 17.8367 21.2305 18.3727 20.8365C18.8929 20.4424 19.5944 20.2453 20.4771 20.2453H22.6525V25.2818H20.1461ZM20.0515 32.7064C19.1215 32.7064 18.3333 32.5015 17.687 32.0916C17.0407 31.6818 16.7175 31.0434 16.7175 30.1764C16.7175 29.5458 16.8909 29.0493 17.2377 28.6867C17.5845 28.3241 18.0259 28.064 18.5618 27.9064C19.0978 27.7488 19.6495 27.67 20.217 27.67H22.6525V32.7064H20.0515ZM27.8545 25.2818C28.753 25.2818 29.4072 25.0296 29.817 24.5251C30.2269 24.0049 30.4318 23.398 30.4318 22.7044C30.4318 21.8532 30.1638 21.2305 29.6279 20.8365C29.1077 20.4424 28.4062 20.2453 27.5234 20.2453H25.3481V25.2818H27.8545ZM27.949 32.7064C28.8791 32.7064 29.6673 32.5015 30.3136 32.0916C30.9599 31.6818 31.283 31.0434 31.283 30.1764C31.283 29.5458 31.1096 29.0493 30.7628 28.6867C30.416 28.3241 29.9747 28.064 29.4387 27.9064C28.9027 27.7488 28.351 27.67 27.7835 27.67H25.3481V32.7064H27.949Z" fill="white"/>
</g>
<defs>
<clipPath id="clip0_227_545">
<rect width="48" height="48" rx="12" fill="white"/>
</clipPath>
</defs>
</svg>
