<svg width="24" height="24" viewBox="0 0 24 24" fill="none" xmlns="http://www.w3.org/2000/svg">
<path d="M7.00612 0C8.32612 0 9.60562 0.3705 10.7081 1.053C12.3548 0.877733 14.0198 1.07197 15.582 1.62157C17.1441 2.17116 18.5639 3.06228 19.7381 4.23C20.7675 5.25626 21.5844 6.4754 22.1421 7.81766C22.6999 9.15992 22.9875 10.599 22.9886 12.0525C22.9886 12.5685 22.9526 13.083 22.8806 13.5915C23.4689 14.636 23.7788 15.8142 23.7806 17.013C23.7806 17.9314 23.5991 18.8407 23.2464 19.6887C22.8937 20.5366 22.3769 21.3065 21.7256 21.954C20.41 23.2658 18.6275 24.0017 16.7696 24C15.5096 24 14.2826 23.661 13.2146 23.034C11.5466 23.2332 9.85508 23.0523 8.26686 22.505C6.67863 21.9576 5.23483 21.058 4.04362 19.8735C3.0146 18.8473 2.19788 17.6284 1.64014 16.2864C1.0824 14.9445 0.79458 13.5058 0.793121 12.0525C0.793121 11.508 0.832121 10.9665 0.913121 10.431C0.15636 9.10203 -0.142028 7.56095 0.0639999 6.04556C0.270028 4.53017 0.969021 3.12469 2.05312 2.046C3.36824 0.736233 5.14854 0.00059726 7.00462 0L7.00612 0ZM7.67662 10.515C7.94662 10.9785 8.32162 11.373 8.77012 11.6685C9.36425 12.0573 9.99591 12.3854 10.6556 12.648C11.3936 12.9555 11.9651 13.218 12.3731 13.4325C12.7166 13.6005 13.0286 13.8285 13.2956 14.1045C13.4981 14.3175 13.6106 14.601 13.6106 14.8965C13.6191 15.1042 13.5779 15.3109 13.4905 15.4995C13.4031 15.6881 13.272 15.8532 13.1081 15.981C12.6716 16.275 12.1481 16.4145 11.6231 16.377C11.0835 16.3831 10.5483 16.2779 10.0511 16.068C9.78191 15.9484 9.51582 15.8218 9.25312 15.6885C8.98177 15.5443 8.67987 15.4672 8.37262 15.4635C8.09756 15.4521 7.8286 15.5466 7.62112 15.7275C7.52195 15.8218 7.44444 15.9364 7.39394 16.0636C7.34344 16.1908 7.32115 16.3274 7.32862 16.464C7.32232 16.7227 7.40023 16.9764 7.55062 17.187C7.73201 17.417 7.96681 17.5993 8.23462 17.718C9.28019 18.1714 10.4137 18.3861 11.5526 18.3465C12.382 18.363 13.2075 18.2283 13.9886 17.949C14.6364 17.7191 15.2006 17.3007 15.6086 16.7475C16.0091 16.1625 16.2116 15.465 16.1876 14.757C16.2032 14.1784 16.0584 13.6068 15.7691 13.1055C15.4755 12.6289 15.08 12.2233 14.6111 11.9175C14.0168 11.5341 13.3863 11.2101 12.7286 10.95C12.6584 10.9156 12.5857 10.8866 12.5111 10.863C11.9979 10.655 11.4912 10.4314 10.9916 10.1925C10.6884 10.0501 10.4139 9.85338 10.1816 9.612C9.98642 9.40662 9.87883 9.13333 9.88162 8.85C9.87202 8.63409 9.92054 8.41957 10.0221 8.22881C10.1237 8.03805 10.2746 7.87805 10.4591 7.7655C10.8972 7.50434 11.4015 7.37566 11.9111 7.395C12.3011 7.3905 12.6911 7.44 13.0691 7.539C13.4801 7.6575 13.8821 7.8045 14.2721 7.9785C14.4296 8.052 14.6021 8.091 14.7761 8.0925C14.9031 8.09562 15.0293 8.07185 15.1464 8.02273C15.2635 7.97361 15.3689 7.90026 15.4556 7.8075C15.6406 7.60507 15.7377 7.33748 15.7256 7.0635C15.7301 6.80244 15.6395 6.54866 15.4706 6.3495C15.2398 6.10745 14.9536 5.92521 14.6366 5.8185C14.2926 5.69206 13.9368 5.60011 13.5746 5.544C13.0679 5.46107 12.555 5.42193 12.0416 5.427C11.257 5.42201 10.4775 5.55295 9.73762 5.814C9.05703 6.04354 8.44942 6.44931 7.97662 6.99C7.52179 7.52855 7.28146 8.21587 7.30162 8.9205C7.28662 9.4755 7.41562 10.0245 7.67662 10.515Z" />
</svg>
