<svg width="48" height="64" viewBox="0 0 48 64" fill="none" xmlns="http://www.w3.org/2000/svg">
<path d="M48 24C48 34.925 33.375 54.375 26.9625 62.4C25.425 64.3125 22.575 64.3125 21.0375 62.4C14.5125 54.375 0 34.925 0 24C0 10.745 10.745 0 24 0C37.25 0 48 10.745 48 24Z" fill="#FFD600"/>
<path d="M24 42.5C34.2173 42.5 42.5 34.2173 42.5 24C42.5 13.7827 34.2173 5.5 24 5.5C13.7827 5.5 5.5 13.7827 5.5 24C5.5 34.2173 13.7827 42.5 24 42.5Z" fill="white" stroke="#FFD600" stroke-width="3"/>
<path d="M16.0898 19.1367L13.541 26.5312H12L15.2109 18H16.1953L16.0898 19.1367ZM18.2227 26.5312L15.668 19.1367L15.5566 18H16.5469L19.7695 26.5312H18.2227ZM18.0996 23.3672V24.5332H13.459V23.3672H18.0996ZM23.4961 18V26.5312H22.0371V18H23.4961ZM26.1738 18V19.1719H19.3828V18H26.1738ZM27.8965 18H29.209L31.6758 24.5801L34.1367 18H35.4492L32.1914 26.5312H31.1484L27.8965 18ZM27.2988 18H28.5469L28.7637 23.6953V26.5312H27.2988V18ZM34.7988 18H36.0527V26.5312H34.582V23.6953L34.7988 18Z" fill="#212529"/>
</svg>
