<svg width="56" height="56" viewBox="0 0 56 56" fill="none" xmlns="http://www.w3.org/2000/svg">
<path d="M32 19C29.24 19 27 21.24 27 24C27 26.76 29.24 29 32 29C34.76 29 37 26.76 37 24C37 21.24 34.76 19 32 19ZM32 27C30.34 27 29 25.66 29 24C29 22.34 30.34 21 32 21C33.66 21 35 22.34 35 24C35 25.66 33.66 27 32 27ZM35 33H33C33 31.8 32.25 30.72 31.13 30.3L24.97 28H17V39H23V37.56L30 39.5L38 37V36C38 34.34 36.66 33 35 33ZM21 37H19V30H21V37ZM29.97 37.41L23 35.5V30H24.61L30.43 32.17C30.77 32.3 31 32.63 31 33C31 33 29 32.95 28.7 32.85L26.32 32.06L25.69 33.96L28.07 34.75C28.58 34.92 29.11 35 29.65 35H35C35.39 35 35.74 35.24 35.9 35.57L29.97 37.41Z"/>
</svg>
