<svg width="38" height="25" viewBox="0 0 38 25" fill="none" xmlns="http://www.w3.org/2000/svg">
<path d="M24.1257 3.55078H13.8423V22.4168H24.1257V3.55078Z" fill="#FF5A00"/>
<path d="M14.5271 12.9902C14.5271 9.15722 16.2917 5.75528 18.9995 3.55722C17.0067 1.95722 14.4929 0.990234 11.7509 0.990234C5.25532 0.990234 -0.000488281 6.35722 -0.000488281 12.9902C-0.000488281 19.6232 5.25532 24.9902 11.7509 24.9902C14.4929 24.9902 17.0067 24.0232 18.9995 22.4232C16.2879 20.2563 14.5271 16.8232 14.5271 12.9902Z" fill="#EB001B"/>
<path d="M37.9995 12.9902C37.9995 19.6232 32.7437 24.9902 26.2481 24.9902C23.5061 24.9902 20.9923 24.0232 18.9995 22.4232C21.7415 20.2213 23.4719 16.8232 23.4719 12.9902C23.4719 9.15722 21.7073 5.75528 18.9995 3.55722C20.9885 1.95722 23.5023 0.990234 26.2443 0.990234C32.7437 0.990234 37.9995 6.39218 37.9995 12.9902Z" fill="#F79E1B"/>
</svg>
