<svg width="10" height="6" viewBox="0 0 10 6" fill="none" xmlns="http://www.w3.org/2000/svg">
<path d="M6.1115 1.02344H3.73535V5.31814H6.1115V1.02344Z" fill="#FF5A00"/>
<path d="M3.89296 3.17116C3.89296 2.29861 4.30071 1.52418 4.92638 1.02381C4.46591 0.659581 3.88506 0.439453 3.25148 0.439453C1.75057 0.439453 0.536133 1.66121 0.536133 3.17116C0.536133 4.68111 1.75057 5.90287 3.25148 5.90287C3.88506 5.90287 4.46591 5.68274 4.92638 5.31851C4.29983 4.82521 3.89296 4.04372 3.89296 3.17116Z" fill="#EB001B"/>
<path d="M9.317 3.17116C9.317 4.68111 8.10257 5.90287 6.60166 5.90287C5.96808 5.90287 5.38722 5.68274 4.92676 5.31851C5.56034 4.81726 5.96017 4.04372 5.96017 3.17116C5.96017 2.29861 5.55243 1.52418 4.92676 1.02381C5.38634 0.659581 5.9672 0.439453 6.60078 0.439453C8.10257 0.439453 9.317 1.66916 9.317 3.17116Z" fill="#F79E1B"/>
</svg>
