<svg width="20" height="20" viewBox="0 0 20 20" fill="none" xmlns="http://www.w3.org/2000/svg">
<path d="M19.2 8.64C19.2 8.06397 18.816 7.68 18.24 7.68H15.36V0.96C15.36 0.383966 14.976 0 14.4 0H0.96C0.383966 0 0 0.383966 0 0.96V10.56C0 11.136 0.383966 11.52 0.96 11.52H3.84V18.24C3.84 18.816 4.22397 19.2 4.8 19.2H18.24C18.816 19.2 19.2 18.816 19.2 18.24V8.64ZM14.4 17.28V14.4H17.28V17.28H14.4ZM13.44 1.92V3.84H1.92V1.92H13.44ZM1.92 9.6V5.76H13.44V7.68H4.8C4.22397 7.68 3.84 8.06397 3.84 8.64V9.6H1.92ZM5.76 9.6H17.28V12.48H13.44C12.864 12.48 12.48 12.864 12.48 13.44V17.28H5.76V9.6Z" fill="#212529"/>
</svg>
