<svg width="332" height="207" viewBox="0 0 332 207" fill="none" xmlns="http://www.w3.org/2000/svg">
<g filter="url(#filter0_dddd_8202_74086)">
<g clip-path="url(#clip0_8202_74086)">
<rect x="328" y="200" width="328" height="200" rx="12" transform="rotate(-180 328 200)" fill="white"/>
<rect x="328" y="200" width="328" height="200" rx="12" transform="rotate(-180 328 200)" fill="url(#paint0_linear_8202_74086)"/>
<path d="M62.0992 347.797C52.9064 348.705 46.1777 339.321 49.9875 330.906L220.997 -46.8244C224.807 -55.2398 236.298 -56.375 241.681 -48.8679L483.3 288.096C488.683 295.603 483.921 306.122 474.728 307.031L62.0992 347.797Z" fill="url(#paint1_linear_8202_74086)"/>
<path d="M255.641 178.927C264.834 179.835 271.562 170.451 267.752 162.036L134.679 -131.901C130.869 -140.316 119.378 -141.451 113.995 -133.944L-74.0247 128.269C-79.4077 135.776 -74.6453 146.296 -65.4524 147.204L255.641 178.927Z" fill="url(#paint2_linear_8202_74086)"/>
</g>
</g>
<defs>
<filter id="filter0_dddd_8202_74086" x="-3.01755" y="0" width="334.035" height="206.79" filterUnits="userSpaceOnUse" color-interpolation-filters="sRGB">
<feFlood flood-opacity="0" result="BackgroundImageFix"/>
<feColorMatrix in="SourceAlpha" type="matrix" values="0 0 0 0 0 0 0 0 0 0 0 0 0 0 0 0 0 0 127 0" result="hardAlpha"/>
<feOffset dy="0.467326"/>
<feGaussianBlur stdDeviation="0.186931"/>
<feColorMatrix type="matrix" values="0 0 0 0 0 0 0 0 0 0 0 0 0 0 0 0 0 0 0.0196802 0"/>
<feBlend mode="normal" in2="BackgroundImageFix" result="effect1_dropShadow_8202_74086"/>
<feColorMatrix in="SourceAlpha" type="matrix" values="0 0 0 0 0 0 0 0 0 0 0 0 0 0 0 0 0 0 127 0" result="hardAlpha"/>
<feOffset dy="1.12305"/>
<feGaussianBlur stdDeviation="0.44922"/>
<feColorMatrix type="matrix" values="0 0 0 0 0 0 0 0 0 0 0 0 0 0 0 0 0 0 0.0282725 0"/>
<feBlend mode="normal" in2="effect1_dropShadow_8202_74086" result="effect2_dropShadow_8202_74086"/>
<feColorMatrix in="SourceAlpha" type="matrix" values="0 0 0 0 0 0 0 0 0 0 0 0 0 0 0 0 0 0 127 0" result="hardAlpha"/>
<feOffset dy="2.1146"/>
<feGaussianBlur stdDeviation="0.845841"/>
<feColorMatrix type="matrix" values="0 0 0 0 0 0 0 0 0 0 0 0 0 0 0 0 0 0 0.035 0"/>
<feBlend mode="normal" in2="effect2_dropShadow_8202_74086" result="effect3_dropShadow_8202_74086"/>
<feColorMatrix in="SourceAlpha" type="matrix" values="0 0 0 0 0 0 0 0 0 0 0 0 0 0 0 0 0 0 127 0" result="hardAlpha"/>
<feOffset dy="3.77209"/>
<feGaussianBlur stdDeviation="1.50884"/>
<feColorMatrix type="matrix" values="0 0 0 0 0 0 0 0 0 0 0 0 0 0 0 0 0 0 0.0417275 0"/>
<feBlend mode="normal" in2="effect3_dropShadow_8202_74086" result="effect4_dropShadow_8202_74086"/>
<feBlend mode="normal" in="SourceGraphic" in2="effect4_dropShadow_8202_74086" result="shape"/>
</filter>
<linearGradient id="paint0_linear_8202_74086" x1="320" y1="400" x2="656" y2="200" gradientUnits="userSpaceOnUse">
<stop stop-color="#FF4E50"/>
<stop offset="1" stop-color="#F9D423"/>
</linearGradient>
<linearGradient id="paint1_linear_8202_74086" x1="43.0001" y1="346.5" x2="343.904" y2="227.938" gradientUnits="userSpaceOnUse">
<stop stop-color="#FF8A00"/>
<stop offset="1" stop-color="#FAD025" stop-opacity="0"/>
</linearGradient>
<linearGradient id="paint2_linear_8202_74086" x1="390.5" y1="399.5" x2="-25.8179" y2="154.824" gradientUnits="userSpaceOnUse">
<stop stop-color="#FFD600"/>
<stop offset="1" stop-color="#FA4944" stop-opacity="0"/>
</linearGradient>
<clipPath id="clip0_8202_74086">
<rect x="328" y="200" width="328" height="200" rx="12" transform="rotate(-180 328 200)" fill="white"/>
</clipPath>
</defs>
</svg>
