<svg width="42" height="21" viewBox="0 0 42 21" fill="none" xmlns="http://www.w3.org/2000/svg">
<g clip-path="url(#clip0_15200_103838)">
<path d="M19.1518 16.7898H16.3398L18.0987 5.8916H20.9105L19.1518 16.7898Z" fill="white"/>
<path d="M29.3458 6.15734C28.7912 5.93683 27.9114 5.69336 26.8237 5.69336C24.0468 5.69336 22.0913 7.1773 22.0793 9.29888C22.0562 10.8642 23.4794 11.7336 24.5437 12.2555C25.6317 12.7888 26.0015 13.1369 26.0015 13.6123C25.9904 14.3424 25.1224 14.679 24.3128 14.679C23.1901 14.679 22.5886 14.5054 21.6744 14.0992L21.3041 13.9251L20.9106 16.3715C21.5702 16.6726 22.7852 16.9398 24.0468 16.9515C26.9973 16.9515 28.9182 15.4906 28.9409 13.2297C28.9522 11.9891 28.2007 11.0385 26.5806 10.2617C25.5971 9.76301 24.9948 9.42677 24.9948 8.91657C25.0063 8.45274 25.5042 7.97766 26.6144 7.97766C27.5286 7.9544 28.2002 8.1746 28.709 8.39495L28.9634 8.51068L29.3458 6.15734Z" fill="white"/>
<path d="M33.083 12.929C33.3146 12.3029 34.2057 9.87973 34.2057 9.87973C34.194 9.903 34.4368 9.24209 34.5756 8.83636L34.7722 9.77541C34.7722 9.77541 35.3047 12.3841 35.4203 12.929C34.9808 12.929 33.6384 12.929 33.083 12.929ZM36.554 5.8916H34.379C33.7082 5.8916 33.1986 6.08853 32.9092 6.79583L28.7324 16.7897H31.6829C31.6829 16.7897 32.1687 15.4446 32.2731 15.1549C32.5968 15.1549 35.467 15.1549 35.8834 15.1549C35.9642 15.5375 36.219 16.7897 36.219 16.7897H38.8226L36.554 5.8916Z" fill="white"/>
<path d="M13.9913 5.8916L11.2375 13.3231L10.9366 11.8159C10.4274 10.0768 8.8307 8.18731 7.04883 7.24779L9.57126 16.7783H12.5448L16.9648 5.8916H13.9913Z" fill="white"/>
<path d="M8.68034 5.8916H4.15615L4.10986 6.1118C7.63902 7.01619 9.97631 9.19617 10.9366 11.8164L9.95309 6.8077C9.79117 6.11165 9.29357 5.91456 8.68034 5.8916Z" fill="white"/>
</g>
<defs>
<clipPath id="clip0_15200_103838">
<rect width="34.7127" height="11.2582" fill="white" transform="translate(4.10986 5.68652)"/>
</clipPath>
</defs>
</svg>
