<svg width="343" height="240" viewBox="0 0 343 240" fill="none" xmlns="http://www.w3.org/2000/svg">
<g clip-path="url(#clip0_860_10219)">
<rect width="343" height="240" rx="8" fill="white"/>
<path d="M444.217 75.5291L343.044 28.6226C338.167 26.3614 333.363 31.8793 336.275 36.3983L379.779 103.912C382.938 108.815 377.109 114.528 372.27 111.27L308.624 68.4178C303.983 65.2934 298.257 70.4653 300.894 75.3991L339.868 148.322C342.553 153.345 336.595 158.54 331.984 155.196L271.789 111.535C267.072 108.114 261.05 113.606 264.023 118.618L302.908 184.168C305.828 189.091 300.043 194.555 295.295 191.358L235.597 151.164C230.672 147.848 224.805 153.801 228.192 158.677L267.768 215.654C271.096 220.446 265.467 226.358 260.518 223.268L199.701 185.3C194.701 182.178 189.054 188.231 192.515 193.003L232.662 248.354C236.128 253.133 230.461 259.19 225.463 256.049L167.147 219.41C162.118 216.251 156.442 222.39 159.985 227.156L216.528 303.217" stroke="#6DB720" stroke-width="0.670833" stroke-linecap="round"/>
<path d="M462.244 93.5548L361.071 46.6483C356.194 44.387 351.391 49.905 354.303 54.424L397.806 121.937C400.965 126.841 395.136 132.554 390.297 129.296L326.651 86.4435C322.011 83.319 316.284 88.4909 318.921 93.4248L357.896 166.348C360.58 171.371 354.622 176.566 350.012 173.222L289.817 129.561C285.1 126.14 279.077 131.632 282.05 136.643L320.935 202.194C323.856 207.117 318.071 212.58 313.323 209.384L253.625 169.19C248.7 165.874 242.833 171.826 246.22 176.703L285.795 233.68C289.123 238.472 283.494 244.384 278.546 241.294L217.729 203.326C212.728 200.204 207.081 206.257 210.542 211.029L250.689 266.379C254.155 271.158 248.489 277.215 243.49 274.075L185.174 237.436C180.145 234.276 174.469 240.416 178.012 245.182L234.556 321.243" stroke="#6DB720" stroke-width="0.670833"/>
<path d="M480.267 111.58L379.095 64.6733C374.217 62.412 369.414 67.9299 372.326 72.449L415.829 139.962C418.989 144.866 413.159 150.579 408.321 147.321L344.675 104.468C340.034 101.344 334.307 106.516 336.944 111.45L375.919 184.373C378.604 189.396 372.646 194.591 368.035 191.247L307.84 147.586C303.123 144.165 297.101 149.657 300.074 154.668L338.959 220.219C341.879 225.142 336.094 230.605 331.346 227.409L271.648 187.215C266.723 183.899 260.856 189.851 264.243 194.728L303.819 251.705C307.147 256.497 301.518 262.408 296.569 259.319L235.752 221.351C230.752 218.229 225.105 224.282 228.566 229.054L268.713 284.404C272.179 289.183 266.512 295.24 261.513 292.1L203.197 255.461C198.169 252.301 192.492 258.441 196.036 263.207L252.579 339.268" stroke="#6DB720" stroke-width="0.670833"/>
<path d="M498.295 129.605L397.122 82.699C392.245 80.4377 387.442 85.9556 390.353 90.4747L433.857 157.988C437.016 162.891 431.187 168.604 426.348 165.347L362.702 122.494C358.062 119.37 352.335 124.542 354.972 129.475L393.946 202.399C396.631 207.422 390.673 212.617 386.062 209.272L325.868 165.612C321.151 162.19 315.128 167.682 318.101 172.694L356.986 238.245C359.907 243.167 354.121 248.631 349.373 245.434L289.676 205.24C284.751 201.924 278.884 207.877 282.271 212.753L321.846 269.731C325.174 274.522 319.545 280.434 314.596 277.345L253.779 239.376C248.779 236.254 243.132 242.308 246.593 247.08L286.74 302.43C290.206 307.209 284.54 313.266 279.541 310.125L221.225 273.487C216.196 270.327 210.52 276.466 214.063 281.233L270.606 357.294" stroke="#6DB720" stroke-width="0.670833"/>
<path d="M516.318 147.63L415.145 100.724C410.268 98.4627 405.465 103.981 408.377 108.5L451.88 176.013C455.04 180.916 449.21 186.629 444.372 183.371L380.725 140.519C376.085 137.395 370.358 142.567 372.995 147.5L411.97 220.423C414.655 225.447 408.696 230.642 404.086 227.297L343.891 183.637C339.174 180.215 333.151 185.707 336.124 190.719L375.01 256.269C377.93 261.192 372.145 266.656 367.397 263.459L307.699 223.265C302.774 219.949 296.907 225.902 300.294 230.778L339.87 287.756C343.198 292.547 337.568 298.459 332.62 295.37L271.803 257.401C266.802 254.279 261.155 260.333 264.616 265.105L304.763 320.455C308.23 325.234 302.563 331.291 297.564 328.15L239.248 291.512C234.219 288.352 228.543 294.491 232.086 299.258L288.63 375.319" stroke="#6DB720" stroke-width="0.670833"/>
<path d="M534.346 165.656L433.173 118.75C428.296 116.488 423.492 122.006 426.404 126.525L469.907 194.039C473.067 198.942 467.238 204.655 462.399 201.397L398.753 158.545C394.112 155.42 388.385 160.592 391.022 165.526L429.997 238.449C432.682 243.472 426.724 248.667 422.113 245.323L361.918 201.662C357.201 198.241 351.179 203.733 354.152 208.745L393.037 274.295C395.957 279.218 390.172 284.682 385.424 281.485L325.726 241.291C320.801 237.975 314.934 243.928 318.321 248.804L357.897 305.781C361.225 310.573 355.596 316.485 350.647 313.395L289.83 275.427C284.83 272.305 279.183 278.358 282.644 283.13L322.791 338.481C326.257 343.26 320.59 349.317 315.592 346.176L257.276 309.537C252.247 306.378 246.57 312.517 250.114 317.283L306.657 393.344" stroke="#6DB720" stroke-width="0.670833"/>
<path d="M552.369 183.681L451.196 136.775C446.319 134.514 441.516 140.032 444.428 144.551L487.931 212.064C491.09 216.967 485.261 222.68 480.422 219.422L416.776 176.57C412.136 173.446 406.409 178.618 409.046 183.551L448.021 256.475C450.705 261.498 444.747 266.693 440.137 263.348L379.942 219.688C375.225 216.266 369.202 221.758 372.175 226.77L411.06 292.32C413.981 297.243 408.196 302.707 403.448 299.51L343.75 259.316C338.825 256 332.958 261.953 336.345 266.829L375.92 323.807C379.248 328.598 373.619 334.51 368.671 331.421L307.854 293.452C302.853 290.33 297.206 296.384 300.667 301.156L340.814 356.506C344.28 361.285 338.614 367.342 333.615 364.201L275.299 327.563C270.27 324.403 264.594 330.542 268.137 335.309L324.681 411.37" stroke="#6DB720" stroke-width="0.670833"/>
<path d="M570.392 201.707L469.22 154.8C464.342 152.539 459.539 158.057 462.451 162.576L505.954 230.089C509.114 234.993 503.284 240.706 498.446 237.448L434.8 194.595C430.159 191.471 424.432 196.643 427.069 201.577L466.044 274.5C468.729 279.523 462.771 284.718 458.16 281.374L397.965 237.713C393.248 234.292 387.226 239.784 390.199 244.795L429.084 310.346C432.004 315.269 426.219 320.732 421.471 317.536L361.773 277.342C356.848 274.026 350.981 279.978 354.368 284.855L393.944 341.832C397.272 346.624 391.643 352.535 386.694 349.446L325.877 311.478C320.877 308.356 315.23 314.409 318.691 319.181L358.838 374.531C362.304 379.31 356.637 385.367 351.638 382.227L293.322 345.588C288.294 342.428 282.617 348.568 286.161 353.334L342.704 429.395" stroke="#6DB720" stroke-width="0.670833"/>
<path d="M588.42 219.732L487.247 172.826C482.37 170.564 477.567 176.082 480.478 180.601L523.982 248.115C527.141 253.018 521.312 258.731 516.473 255.473L452.827 212.621C448.187 209.496 442.46 214.668 445.097 219.602L484.071 292.525C486.756 297.548 480.798 302.743 476.187 299.399L415.993 255.738C411.276 252.317 405.253 257.809 408.226 262.821L447.111 328.371C450.032 333.294 444.246 338.758 439.498 335.561L379.801 295.367C374.876 292.051 369.009 298.004 372.396 302.88L411.971 359.857C415.299 364.649 409.67 370.561 404.721 367.471L343.904 329.503C338.904 326.381 333.257 332.434 336.718 337.206L376.865 392.557C380.331 397.336 374.665 403.393 369.666 400.252L311.35 363.613C306.321 360.454 300.645 366.593 304.188 371.359L360.731 447.42" stroke="#6DB720" stroke-width="0.670833"/>
<path d="M606.443 237.757L505.27 190.851C500.393 188.589 495.59 194.107 498.502 198.626L542.005 266.14C545.165 271.043 539.335 276.756 534.497 273.498L470.85 230.646C466.21 227.521 460.483 232.693 463.12 237.627L502.095 310.55C504.78 315.573 498.821 320.768 494.211 317.424L434.016 273.763C429.299 270.342 423.276 275.834 426.249 280.846L465.135 346.396C468.055 351.319 462.27 356.783 457.522 353.586L397.824 313.392C392.899 310.076 387.032 316.029 390.419 320.905L429.995 377.882C433.323 382.674 427.693 388.586 422.745 385.496L361.928 347.528C356.927 344.406 351.28 350.459 354.741 355.231L394.888 410.582C398.355 415.36 392.688 421.417 387.689 418.277L329.373 381.638C324.344 378.479 318.668 384.618 322.211 389.384L378.755 465.445" stroke="#6DB720" stroke-width="0.670833"/>
<path d="M624.471 255.782L523.298 208.876C518.421 206.615 513.617 212.133 516.529 216.652L560.032 284.165C563.192 289.068 557.363 294.781 552.524 291.523L488.878 248.671C484.237 245.547 478.51 250.719 481.147 255.652L520.122 328.575C522.807 333.599 516.849 338.794 512.238 335.449L452.043 291.789C447.326 288.367 441.304 293.859 444.277 298.871L483.162 364.421C486.082 369.344 480.297 374.808 475.549 371.611L415.851 331.417C410.926 328.101 405.059 334.054 408.446 338.93L448.022 395.908C451.35 400.699 445.721 406.611 440.772 403.522L379.955 365.553C374.955 362.431 369.308 368.485 372.769 373.256L412.916 428.607C416.382 433.386 410.715 439.443 405.717 436.302L347.401 399.664C342.372 396.504 336.695 402.643 340.239 407.41L396.782 483.471" stroke="#6DB720" stroke-width="0.670833"/>
<path d="M642.494 273.808L541.321 226.901C536.444 224.64 531.641 230.158 534.553 234.677L578.056 302.19C581.215 307.094 575.386 312.807 570.547 309.549L506.901 266.696C502.261 263.572 496.534 268.744 499.171 273.678L538.146 346.601C540.83 351.624 534.872 356.819 530.262 353.475L470.067 309.814C465.35 306.393 459.327 311.885 462.3 316.896L501.185 382.447C504.106 387.37 498.321 392.833 493.573 389.636L433.875 349.443C428.95 346.127 423.083 352.079 426.47 356.956L466.045 413.933C469.373 418.724 463.744 424.636 458.796 421.547L397.979 383.579C392.978 380.457 387.331 386.51 390.792 391.282L430.939 446.632C434.405 451.411 428.739 457.468 423.74 454.328L365.424 417.689C360.395 414.529 354.719 420.669 358.262 425.435L414.806 501.496" stroke="#6DB720" stroke-width="0.670833"/>
</g>
<rect x="0.5" y="0.5" width="342" height="239" rx="7.5" stroke="#F5F5F5"/>
<defs>
<clipPath id="clip0_860_10219">
<rect width="343" height="240" rx="8" fill="white"/>
</clipPath>
</defs>
</svg>
