<svg width="20" height="20" viewBox="0 0 20 20" fill="none" xmlns="http://www.w3.org/2000/svg">
<path d="M17.28 0H1.92C0.863966 0 0 0.863966 0 1.92V8.64C0 9.69604 0.863966 10.56 1.92 10.56H3.74397L1.92 18.048C1.82397 18.624 2.30397 19.2001 2.88 19.2001H16.32C16.896 19.2001 17.376 18.624 17.28 18.048L15.456 10.56H17.28C18.336 10.56 19.2 9.69604 19.2 8.64V1.92C19.2 0.863966 18.336 0 17.28 0ZM4.128 17.28C6.24007 8.448 5.76007 10.56 6.528 6.72H12.672C13.536 10.656 13.056 8.44793 15.072 17.28H4.128ZM17.28 8.64H15.0721L14.6881 6.72H15.36C15.9361 6.72 16.32 6.33603 16.32 5.76C16.32 5.18397 15.9361 4.8 15.36 4.8H3.84003C3.36003 4.8 2.88003 5.18397 2.88003 5.76C2.88003 6.33603 3.264 6.72 3.84003 6.72H4.60797L4.12797 8.64H1.92003V1.92H17.28L17.28 8.64Z" fill="#212529"/>
</svg>
