<svg width="56" height="56" viewBox="0 0 56 56" fill="none" xmlns="http://www.w3.org/2000/svg">
<path d="M25.5 32V24C25.5 22.9 26.39 22 27.5 22H36.5V21C36.5 19.9 35.6 19 34.5 19H20.5C19.39 19 18.5 19.9 18.5 21V35C18.5 36.1 19.39 37 20.5 37H34.5C35.6 37 36.5 36.1 36.5 35V34H27.5C26.39 34 25.5 33.1 25.5 32ZM28.5 24C27.95 24 27.5 24.45 27.5 25V31C27.5 31.55 27.95 32 28.5 32H37.5V24H28.5ZM31.5 29.5C30.67 29.5 30 28.83 30 28C30 27.17 30.67 26.5 31.5 26.5C32.33 26.5 33 27.17 33 28C33 28.83 32.33 29.5 31.5 29.5Z" />
</svg>