<svg width="17" height="16" viewBox="0 0 17 16" fill="none" xmlns="http://www.w3.org/2000/svg">
<g opacity="0.6">
<path fill-rule="evenodd" clip-rule="evenodd" d="M12.854 14.354C12.8076 14.4006 12.7524 14.4375 12.6917 14.4627C12.6309 14.4879 12.5658 14.5009 12.5 14.5009C12.4343 14.5009 12.3691 14.4879 12.3084 14.4627C12.2476 14.4375 12.1925 14.4006 12.146 14.354L6.14602 8.35402C6.09946 8.30758 6.06252 8.2524 6.03731 8.19165C6.0121 8.13091 5.99913 8.06579 5.99913 8.00002C5.99913 7.93425 6.0121 7.86913 6.03731 7.80839C6.06252 7.74764 6.09946 7.69247 6.14602 7.64602L12.146 1.64602C12.2399 1.55214 12.3672 1.49939 12.5 1.49939C12.6328 1.49939 12.7601 1.55214 12.854 1.64602C12.9479 1.73991 13.0007 1.86725 13.0007 2.00002C13.0007 2.1328 12.9479 2.26014 12.854 2.35402L7.20702 8.00002L12.854 13.646C12.9006 13.6925 12.9375 13.7476 12.9627 13.8084C12.9879 13.8691 13.0009 13.9343 13.0009 14C13.0009 14.0658 12.9879 14.1309 12.9627 14.1917C12.9375 14.2524 12.9006 14.3076 12.854 14.354V14.354Z" fill="#B3B3B3"/>
<path fill-rule="evenodd" clip-rule="evenodd" d="M8.85402 14.354C8.80758 14.4006 8.7524 14.4375 8.69166 14.4627C8.63091 14.4879 8.56579 14.5009 8.50002 14.5009C8.43425 14.5009 8.36913 14.4879 8.30839 14.4627C8.24764 14.4375 8.19247 14.4006 8.14602 14.354L2.14602 8.35402C2.09946 8.30758 2.06251 8.2524 2.03731 8.19166C2.0121 8.13091 1.99913 8.06579 1.99913 8.00002C1.99913 7.93425 2.0121 7.86913 2.03731 7.80839C2.06251 7.74764 2.09946 7.69247 2.14602 7.64602L8.14602 1.64602C8.23991 1.55214 8.36725 1.49939 8.50002 1.49939C8.6328 1.49939 8.76014 1.55214 8.85402 1.64602C8.94791 1.73991 9.00065 1.86725 9.00065 2.00002C9.00065 2.1328 8.94791 2.26014 8.85402 2.35402L3.20702 8.00002L8.85402 13.646C8.90059 13.6925 8.93753 13.7476 8.96273 13.8084C8.98794 13.8691 9.00092 13.9343 9.00092 14C9.00092 14.0658 8.98794 14.1309 8.96273 14.1917C8.93753 14.2524 8.90059 14.3076 8.85402 14.354Z" fill="#B3B3B3"/>
</g>
</svg>
