<svg width="16" height="16" viewBox="0 0 16 16" fill="none" xmlns="http://www.w3.org/2000/svg">
<path fill-rule="evenodd" clip-rule="evenodd" d="M13.8537 2.14598C13.9002 2.19242 13.9372 2.2476 13.9624 2.30834C13.9876 2.36909 14.0005 2.43421 14.0005 2.49998C14.0005 2.56575 13.9876 2.63087 13.9624 2.69161C13.9372 2.75236 13.9002 2.80753 13.8537 2.85398L2.85366 13.854C2.75977 13.9479 2.63243 14.0006 2.49965 14.0006C2.36688 14.0006 2.23954 13.9479 2.14565 13.854C2.05177 13.7601 1.99902 13.6328 1.99902 13.5C1.99902 13.3672 2.05177 13.2399 2.14565 13.146L13.1457 2.14598C13.1921 2.09941 13.2473 2.06247 13.308 2.03727C13.3688 2.01206 13.4339 1.99908 13.4997 1.99908C13.5654 1.99908 13.6305 2.01206 13.6913 2.03727C13.752 2.06247 13.8072 2.09941 13.8537 2.14598Z" fill="#A0A0A6"/>
<path fill-rule="evenodd" clip-rule="evenodd" d="M2.14592 2.14598C2.09935 2.19242 2.06241 2.2476 2.0372 2.30834C2.012 2.36909 1.99902 2.43421 1.99902 2.49998C1.99902 2.56575 2.012 2.63087 2.0372 2.69161C2.06241 2.75236 2.09935 2.80753 2.14592 2.85398L13.1459 13.854C13.2398 13.9479 13.3671 14.0006 13.4999 14.0006C13.6327 14.0006 13.76 13.9479 13.8539 13.854C13.9478 13.7601 14.0005 13.6328 14.0005 13.5C14.0005 13.3672 13.9478 13.2399 13.8539 13.146L2.85392 2.14598C2.80747 2.09941 2.7523 2.06247 2.69155 2.03727C2.63081 2.01206 2.56568 1.99908 2.49992 1.99908C2.43415 1.99908 2.36903 2.01206 2.30828 2.03727C2.24754 2.06247 2.19236 2.09941 2.14592 2.14598Z" fill="#A0A0A6"/>
</svg>
