<svg width="56" height="56" viewBox="0 0 56 56" fill="none" xmlns="http://www.w3.org/2000/svg">
<path d="M31 27C31 26.45 31.45 26 32 26C32.55 26 33 26.45 33 27C33 27.55 32.55 28 32 28C31.45 28 31 27.55 31 27ZM24 26H29V24H24V26ZM38 24.5V31.47L35.18 32.41L33.5 38H28V36H26V38H20.5C20.5 38 18 29.54 18 26.5C18 23.46 20.46 21 23.5 21H28.5C29.41 19.79 30.86 19 32.5 19C32.7471 19.0001 32.9904 19.0612 33.2081 19.1781C33.4259 19.295 33.6113 19.4639 33.7479 19.6698C33.8846 19.8758 33.9681 20.1123 33.9912 20.3583C34.0142 20.6044 33.976 20.8523 33.88 21.08C33.74 21.42 33.62 21.81 33.56 22.23L35.83 24.5H38ZM36 26.5H35L31.5 23C31.5 22.35 31.59 21.71 31.76 21.09C30.79 21.34 30 22.06 29.67 23H23.5C21.57 23 20 24.57 20 26.5C20 28.38 21.22 33.15 22.01 36H24V34H30V36H32.01L33.56 30.85L36 30.03V26.5Z"/>
</svg>
