<svg width="20" height="20" viewBox="0 0 20 20" fill="none" xmlns="http://www.w3.org/2000/svg">
<g opacity="0.6" clip-path="url(#clip0_4704_1978)">
<path fill-rule="evenodd" clip-rule="evenodd" d="M12.5 4.375C12.5 4.20924 12.4342 4.05027 12.3169 3.93306C12.1997 3.81585 12.0408 3.75 11.875 3.75L1.875 3.75C1.70924 3.75 1.55027 3.81585 1.43306 3.93306C1.31585 4.05027 1.25 4.20924 1.25 4.375L1.25 15.625C1.25 15.7908 1.31585 15.9497 1.43306 16.0669C1.55027 16.1842 1.70924 16.25 1.875 16.25H11.875C12.0408 16.25 12.1997 16.1842 12.3169 16.0669C12.4342 15.9497 12.5 15.7908 12.5 15.625V13.125C12.5 12.9592 12.5658 12.8003 12.6831 12.6831C12.8003 12.5658 12.9592 12.5 13.125 12.5C13.2908 12.5 13.4497 12.5658 13.5669 12.6831C13.6842 12.8003 13.75 12.9592 13.75 13.125V15.625C13.75 16.1223 13.5525 16.5992 13.2008 16.9508C12.8492 17.3025 12.3723 17.5 11.875 17.5H1.875C1.37772 17.5 0.900805 17.3025 0.549174 16.9508C0.197544 16.5992 0 16.1223 0 15.625L0 4.375C0 3.87772 0.197544 3.40081 0.549174 3.04917C0.900805 2.69754 1.37772 2.5 1.875 2.5L11.875 2.5C12.3723 2.5 12.8492 2.69754 13.2008 3.04917C13.5525 3.40081 13.75 3.87772 13.75 4.375V6.875C13.75 7.04076 13.6842 7.19973 13.5669 7.31694C13.4497 7.43415 13.2908 7.5 13.125 7.5C12.9592 7.5 12.8003 7.43415 12.6831 7.31694C12.5658 7.19973 12.5 7.04076 12.5 6.875V4.375Z" fill="#B3B3B3"/>
<path fill-rule="evenodd" clip-rule="evenodd" d="M19.8164 9.55671C19.8746 9.61477 19.9208 9.68374 19.9523 9.75967C19.9838 9.8356 20 9.917 20 9.99921C20 10.0814 19.9838 10.1628 19.9523 10.2388C19.9208 10.3147 19.8746 10.3837 19.8164 10.4417L16.0664 14.1917C16.0083 14.2498 15.9393 14.2959 15.8634 14.3274C15.7874 14.3588 15.7061 14.375 15.6239 14.375C15.5417 14.375 15.4603 14.3588 15.3844 14.3274C15.3085 14.2959 15.2395 14.2498 15.1814 14.1917C15.1233 14.1336 15.0772 14.0646 15.0457 13.9887C15.0143 13.9128 14.9981 13.8314 14.9981 13.7492C14.9981 13.667 15.0143 13.5857 15.0457 13.5097C15.0772 13.4338 15.1233 13.3648 15.1814 13.3067L17.8651 10.6242L6.87388 10.6242C6.70812 10.6242 6.54915 10.5584 6.43194 10.4412C6.31473 10.3239 6.24888 10.165 6.24888 9.99921C6.24888 9.83345 6.31473 9.67448 6.43194 9.55727C6.54915 9.44006 6.70812 9.37421 6.87388 9.37421L17.8651 9.37421L15.1814 6.69171C15.1233 6.6336 15.0772 6.56461 15.0457 6.48869C15.0143 6.41277 14.9981 6.33139 14.9981 6.24921C14.9981 6.16703 15.0143 6.08566 15.0457 6.00973C15.0772 5.93381 15.1233 5.86482 15.1814 5.80671C15.2395 5.7486 15.3085 5.70251 15.3844 5.67106C15.4603 5.63961 15.5417 5.62342 15.6239 5.62342C15.7061 5.62342 15.7874 5.63961 15.8634 5.67106C15.9393 5.70251 16.0083 5.7486 16.0664 5.80671L19.8164 9.55671Z" fill="#B3B3B3"/>
</g>
<defs>
<clipPath id="clip0_4704_1978">
<rect width="20" height="20" fill="white" transform="matrix(-1 0 0 -1 20 20)"/>
</clipPath>
</defs>
</svg>
