<svg width="121" height="120" viewBox="0 0 121 120" fill="none" xmlns="http://www.w3.org/2000/svg">
<path d="M102.25 43.169C102.25 43.169 94.6592 48.7652 91.4108 53.9972C89.7098 52.167 88.292 50.0924 87.2048 47.8424C83.6144 40.5134 79.067 40.4024 77.0606 39.8066C75.773 41.4266 73.3454 42.9524 71.1914 43.8866C69.7154 49.5345 68.7686 55.3077 68.3642 61.1312C68.288 62.186 68.522 63.2396 69.0368 64.163L78.839 81.443C81.2156 80.783 83.441 79.6682 85.3928 78.1604C82.9808 71.369 80.9732 65.087 77.249 60.689C77.9918 59.246 79.0214 57.3566 80.2412 54.806C81.848 57.506 84.5492 60.1862 87.9002 62.6936C88.9676 63.4886 90.2942 63.8534 91.6178 63.716C92.9414 63.5786 94.1654 62.9492 95.0468 61.9526L107.458 47.9336C106.027 46.0412 104.262 44.4265 102.25 43.169Z" fill="#FFF9C4"/>
<path d="M29.008 46.5207C29.0081 47.5398 28.7061 48.536 28.14 49.3833C27.5739 50.2307 26.7693 50.8911 25.8279 51.2811C24.8865 51.6712 23.8505 51.7733 22.851 51.5746C21.8516 51.3759 20.9335 50.8852 20.2129 50.1647C19.4922 49.4442 19.0015 48.5261 18.8027 47.5267C18.6038 46.5273 18.7058 45.4913 19.0958 44.5498C19.4857 43.6083 20.1461 42.8036 20.9933 42.2375C21.8406 41.6713 22.8367 41.3691 23.8558 41.3691C25.2219 41.3697 26.532 41.9127 27.498 42.8787C28.4641 43.8446 29.0072 45.1546 29.008 46.5207Z" fill="#FFF9C4"/>
<path d="M40.086 25.069L45.4656 23.143L39.63 11.791L28.3578 15.826L29.6508 21.8578L21.5304 19.0054L20.9946 20.2708L30.3402 25.0708L31.0392 28.3204L31.9284 28.0018C31.6434 27.6934 32.0874 27.4774 33.3984 27.466L39.3024 25.357C39.0714 24.6814 39.0144 24.169 40.086 25.069Z" fill="#FFF9C4"/>
<path fill-rule="evenodd" clip-rule="evenodd" d="M37.17 61.6753C38.9519 60.2653 40.3017 58.3825 41.0658 56.2423C41.3529 55.2317 41.5069 54.1933 41.5277 53.1529C41.9582 53.0215 42.403 52.9334 42.8556 52.8913C44.6145 52.7297 46.3656 53.2726 47.7246 54.4009C49.0836 55.5292 49.9395 57.1506 50.1042 58.9093C50.2255 60.2209 49.9552 61.5385 49.3275 62.6965C48.6998 63.8545 47.7429 64.8001 46.5778 65.4145C45.4127 66.0283 44.0916 66.2833 42.7816 66.1465C41.4717 66.0103 40.2316 65.4883 39.2183 64.6471C38.2737 63.8629 37.5657 62.8339 37.17 61.6753ZM37.1354 61.5715C37.0245 61.1713 36.9344 60.7663 36.8652 60.3589C36.9105 60.7165 36.9849 61.0717 37.0885 61.4203C37.1036 61.4707 37.1192 61.5211 37.1354 61.5715Z" fill="#FFF9C4"/>
<path d="M30.8008 98.811C29.8886 97.3572 28.5903 96.1848 27.0508 95.4258C26.883 97.143 27.258 98.8692 28.123 100.361C28.9879 101.854 30.2993 103.038 31.8724 103.746C31.9845 102.033 31.6132 100.323 30.8008 98.811Z" fill="#FFD600"/>
<path d="M41.0666 56.2394C40.302 58.3814 38.9506 60.2654 37.1666 61.676C36.5392 59.4903 36.5369 57.1724 37.16 54.9854C37.924 52.8431 39.2755 50.9591 41.06 49.5488C41.6858 51.7348 41.6881 54.0522 41.0666 56.2394Z" fill="#FFD600"/>
<path d="M21.1781 40.0446C20.4708 39.3114 19.9815 38.3959 19.7651 37.4004C20.7676 37.5799 21.6996 38.0372 22.4549 38.7204C23.162 39.4537 23.6512 40.3693 23.8679 41.3646C22.8654 41.1851 21.9334 40.7278 21.1781 40.0446Z" fill="#FFD600"/>
<path d="M28.7124 75.7777C27.0401 74.4835 25.4978 73.0291 24.1074 71.4355C23.6734 72.9643 23.5151 74.5579 23.64 76.1425C23.9885 78.9379 25.1139 81.5797 26.8884 83.7679C28.2215 81.3235 28.8528 78.5581 28.7124 75.7777Z" fill="#FFD600"/>
<path d="M65.1855 28.4297C65.2533 28.9883 65.7093 29.2961 66.7353 29.4785C66.8955 29.1365 67.0437 28.7945 67.1799 28.4525C66.1767 28.7603 65.3109 28.8743 65.1855 28.4297Z" fill="#FFD600"/>
<path d="M73.9839 28.4756C73.9839 28.4756 75.7503 25.3988 72.9921 23.7458C67.6809 20.5658 66.5181 24.3728 66.5181 24.3728C66.8121 24.3372 67.1109 24.3604 67.3959 24.4412C67.1793 25.0334 67.1559 25.8428 67.5213 25.4324C68.1711 24.7256 68.8659 25.7858 67.6125 26.6522C68.2227 30.1533 69.6435 33.4632 71.7609 36.3176C72.3507 37.1802 73.1835 37.8484 74.1531 38.238C75.1227 38.6274 76.1859 38.7207 77.2089 38.5058C77.9043 38.3912 78.5577 38.099 79.1073 37.6575C79.6563 37.216 80.0823 36.6402 80.3433 35.9858C82.5435 30.3338 73.9839 28.4756 73.9839 28.4756Z" fill="#FFD600"/>
<path d="M64.7293 37.7871C64.4035 38.0509 64.0639 38.2978 63.7129 38.5269C63.7129 38.5269 64.8997 39.6669 66.5185 40.9329L64.7293 37.7871Z" fill="#FFD600"/>
<path d="M86.772 82.5359C85.9062 81.2939 85.392 80.6333 84.972 79.9727C83.5338 80.5865 82.1682 81.3587 80.9004 82.2743L81.5388 83.4023C82.713 89.5685 83.841 91.8707 85.5852 94.6061C86.6124 91.9961 87.171 84.8153 86.772 82.5359Z" fill="#FFD600"/>
<path d="M105.692 40.6361C104.803 41.8559 104.324 42.5507 103.846 43.1561C104.887 44.3198 106.053 45.366 107.322 46.2761L108.211 45.3077C113.66 42.1979 115.483 40.3853 117.5 37.8581C114.697 37.7297 107.72 39.5195 105.692 40.6361Z" fill="#FFD600"/>
<path d="M50.4468 16.3613C56.9015 16.809 63.0744 19.1789 68.1702 23.1659" stroke="#212529" stroke-width="0.45" stroke-linecap="round" stroke-linejoin="round"/>
<path d="M73.368 71.7898C69.84 75.7114 65.4216 78.7276 60.4845 80.5846C55.5474 82.4416 50.2362 83.0848 44.9985 82.4602C39.7608 81.8356 34.7499 79.9612 30.388 76.9954C26.026 74.0296 22.4408 70.0588 19.9342 65.4172C17.4277 60.7762 16.0733 55.6004 15.9851 50.3263C15.8969 45.0522 17.0775 39.8341 19.4275 35.1117C21.5522 30.8418 24.5767 27.0901 28.286 24.1113" stroke="#212529" stroke-width="0.45" stroke-linecap="round" stroke-linejoin="round"/>
<path d="M81.1755 56.1953C80.7039 58.5753 79.9701 60.8957 78.9873 63.1139" stroke="#212529" stroke-width="0.45" stroke-linecap="round" stroke-linejoin="round"/>
<path d="M79.4092 37.4238C79.858 38.5303 80.2456 39.6604 80.5714 40.809" stroke="#212529" stroke-width="0.45" stroke-linecap="round" stroke-linejoin="round"/>
<path d="M53.8545 36.9321C61.6053 30.8121 65.1837 30.1395 67.0545 31.3245C68.6685 32.3481 69.7503 34.4823 70.8531 34.9569" stroke="#212529" stroke-width="0.45" stroke-linecap="round" stroke-linejoin="round"/>
<path d="M75.7158 38.6211C76.1442 39.0386 76.5972 39.4306 77.0718 39.7947" stroke="#212529" stroke-width="0.45" stroke-linecap="round" stroke-linejoin="round"/>
<path d="M66.5186 24.3753C66.5186 24.3753 67.6814 20.5671 72.9926 23.7483C75.7526 25.4001 73.9844 28.4781 73.9844 28.4781C73.9844 28.4781 82.5356 30.3327 80.3444 35.9895C80.0828 36.6438 79.6574 37.2195 79.1078 37.661C78.5588 38.1024 77.9054 38.3947 77.21 38.5095C76.187 38.7249 75.1238 38.6319 74.1536 38.2424C73.184 37.8528 72.3518 37.1843 71.762 36.3213C69.6452 33.4665 68.225 30.1568 67.6136 26.6559C68.867 25.7895 68.1656 24.7239 67.5224 25.4361C67.154 25.8435 67.1804 25.0377 67.397 24.4449C67.1114 24.3642 66.8132 24.3405 66.5186 24.3753Z" stroke="#212529" stroke-width="0.45" stroke-linecap="round" stroke-linejoin="round"/>
<path d="M66.735 29.479C64.3188 29.0458 65.0706 27.9286 66.5184 24.373" stroke="#212529" stroke-width="0.45" stroke-linecap="round" stroke-linejoin="round"/>
<path d="M65.9941 30.9161C66.4525 30.1297 66.8449 29.3069 67.1683 28.4561C66.1651 28.7639 65.2987 28.8761 65.1733 28.4219" stroke="#212529" stroke-width="0.45" stroke-linecap="round" stroke-linejoin="round"/>
<path d="M61.4602 31.896C57.8002 29.9586 47.9878 22.812 47.9878 22.812C48.6148 20.487 49.7878 18.7998 51.5554 17.8086C51.5554 17.8086 60.2404 24.123 65.4946 26.904" stroke="#212529" stroke-width="0.45" stroke-linecap="round" stroke-linejoin="round"/>
<path d="M80.252 54.7932C81.8594 57.4932 84.56 60.1741 87.9116 62.6809C88.979 63.4759 90.3056 63.8406 91.6292 63.7032C92.9528 63.5658 94.1762 62.9365 95.0576 61.9399L107.458 47.9322C106.018 46.0443 104.255 44.4273 102.25 43.1562C102.25 43.1562 92.1626 50.5878 90.26 56.3322" stroke="#212529" stroke-width="0.45" stroke-linecap="round" stroke-linejoin="round"/>
<path d="M77.243 60.7547C80.9816 65.1545 82.9766 71.3435 85.3928 78.1481C83.441 79.6559 81.2156 80.7707 78.839 81.4307L69.0368 64.1627C68.5214 63.2393 68.288 62.1857 68.3642 61.1309C68.768 55.3036 69.7142 49.5266 71.1908 43.8749C73.3454 42.9401 75.773 41.4149 77.0606 39.7949C79.067 40.3877 83.6144 40.5017 87.2048 47.8307C88.2902 50.0785 89.7062 52.1512 91.4048 53.9801" stroke="#212529" stroke-width="0.45" stroke-linecap="round" stroke-linejoin="round"/>
<path d="M76.4448 62.3748C77.0712 60.9156 78.5796 58.2732 79.8648 55.6272C84.15 46.7994 81.6648 44.9022 80.9448 43.9902" stroke="#212529" stroke-width="0.45" stroke-linecap="round" stroke-linejoin="round"/>
<path d="M63.7124 38.5289C64.0634 38.2998 64.403 38.0529 64.7288 37.7891L66.518 40.9349" stroke="#212529" stroke-width="0.45" stroke-linecap="round" stroke-linejoin="round"/>
<path d="M71.202 43.8757C68.8188 42.8839 65.5878 40.3285 63.7122 38.5291C61.7268 39.8866 59.6647 41.1287 57.5364 42.2491C54.858 43.5253 53.3328 42.6691 50.5266 40.6645C47.2806 38.3473 42.6396 34.9885 42.6396 34.9885C42.7964 33.802 43.2314 32.6694 43.9092 31.683C44.5869 30.6966 45.4883 29.8844 46.5396 29.3125C52.2798 33.1621 55.6998 35.4985 55.6998 35.4985" stroke="#212529" stroke-width="0.45" stroke-linecap="round" stroke-linejoin="round"/>
<path d="M46.1171 17.5355C46.8371 18.2417 47.7251 17.3861 47.0741 16.6577C46.5851 16.1099 45.9797 15.4841 45.5813 15.0737C45.4661 14.9358 45.3017 14.8483 45.123 14.8299C44.9443 14.8113 44.7655 14.8632 44.6245 14.9745C44.4834 15.0857 44.3914 15.2476 44.3678 15.4257C44.3442 15.6037 44.3911 15.784 44.4983 15.9281C44.8121 16.3091 45.4559 16.8857 46.1171 17.5355Z" stroke="#212529" stroke-width="0.45" stroke-linecap="round" stroke-linejoin="round"/>
<path d="M48.5001 13.9901C48.2601 13.7051 48.0801 13.4975 47.8503 13.2263C47.741 13.0853 47.5809 12.9924 47.4041 12.9676C47.2274 12.9428 47.0479 12.9879 46.9039 13.0933C46.7599 13.1988 46.6627 13.3563 46.6331 13.5323C46.6034 13.7083 46.6436 13.8889 46.7451 14.0357C46.9956 14.3618 47.267 14.6712 47.5575 14.9621" stroke="#212529" stroke-width="0.45" stroke-linecap="round" stroke-linejoin="round"/>
<path d="M47.5291 14.9934C47.2783 14.7198 46.6849 14.1162 46.4353 13.842C46.3234 13.6954 46.1579 13.5992 45.9751 13.5746C45.7923 13.55 45.6073 13.599 45.4606 13.7109C45.314 13.8227 45.2178 13.9883 45.1932 14.1711C45.1686 14.3539 45.2177 14.539 45.3295 14.6856C45.6349 15.075 46.3819 15.7986 47.0389 16.4748C47.5897 17.0418 48.2017 16.452 48.1447 15.9162" stroke="#212529" stroke-width="0.45" stroke-linecap="round" stroke-linejoin="round"/>
<path d="M44.2927 17.6719C44.2927 17.6719 44.0659 19.4563 48.2311 22.0153" stroke="#212529" stroke-width="0.45" stroke-linecap="round" stroke-linejoin="round"/>
<path d="M41 14.7427C42.128 12.7135 44.7536 10.7095 47.0858 11.9959C47.4534 12.2043 47.7693 12.4928 48.0101 12.8401C48.2509 13.1873 48.4103 13.5843 48.4766 14.0017" stroke="#212529" stroke-width="0.45" stroke-linecap="round" stroke-linejoin="round"/>
<path d="M30.3299 25.0447L20.9951 20.2693L21.5309 19.0039L29.6459 21.8419" stroke="#212529" stroke-width="0.45" stroke-linecap="round" stroke-linejoin="round"/>
<path d="M33.396 27.4628L39.2898 25.3574" stroke="#212529" stroke-width="0.45" stroke-linecap="round" stroke-linejoin="round"/>
<path d="M40.0868 25.069L45.4664 23.1544L39.6308 11.791L28.3472 15.8254L31.037 28.306L31.9148 27.9982" stroke="#212529" stroke-width="0.45" stroke-linecap="round" stroke-linejoin="round"/>
<path d="M3.5 37.7547L5.4602 33.6405L11.7974 31.5315L13.9064 24.7383" stroke="#212529" stroke-width="0.45" stroke-linecap="round" stroke-linejoin="round"/>
<path d="M11.5356 26.1275L13.9182 24.7031L15.1146 27.1991" stroke="#212529" stroke-width="0.45" stroke-linecap="round" stroke-linejoin="round"/>
<path d="M80.1724 81.0322L81.5404 83.4028C82.7146 89.569 83.8426 91.8712 85.5868 94.6066C86.6122 92.008 87.1708 84.8158 86.7718 82.5364C85.8892 81.3676 85.0684 80.1544 84.3118 78.9004" stroke="#212529" stroke-width="0.45" stroke-linecap="round" stroke-linejoin="round"/>
<path d="M84.9692 79.9727C83.5292 80.5883 82.1624 81.3623 80.894 82.2809" stroke="#212529" stroke-width="0.45" stroke-linecap="round" stroke-linejoin="round"/>
<path d="M105.635 45.8477L99.2632 52.4129" stroke="#212529" stroke-width="0.45" stroke-linecap="round" stroke-linejoin="round"/>
<path d="M103.823 43.1562C104.873 44.3202 106.046 45.3663 107.322 46.2762" stroke="#212529" stroke-width="0.45" stroke-linecap="round" stroke-linejoin="round"/>
<path d="M106.684 46.9858L108.188 45.3106C113.636 42.2104 115.46 40.3978 117.478 37.8676C114.674 37.7422 107.698 39.532 105.67 40.6486C104.923 41.7553 104.116 42.8207 103.253 43.84" stroke="#212529" stroke-width="0.45" stroke-linecap="round" stroke-linejoin="round"/>
<path d="M82.185 80.1525L76.9014 70.0449" stroke="#212529" stroke-width="0.45" stroke-linecap="round" stroke-linejoin="round"/>
<path d="M42.8109 34.1415C41.2985 32.7843 39.6658 31.5675 37.9329 30.5061C36.5463 29.7433 35.078 29.1395 33.5559 28.7061C31.3233 28.0743 31.1511 27.4311 33.6813 27.4641C36.3694 27.68 39.0154 28.2629 41.5455 29.1963" stroke="#212529" stroke-width="0.45" stroke-linecap="round" stroke-linejoin="round"/>
<path d="M40.2124 28.7169C41.5228 28.7739 39.6862 26.4153 39.4258 25.7307C39.0706 24.7971 38.7226 23.7441 40.714 25.6509C42.3656 27.1007 44.1042 28.4482 45.9202 29.6859" stroke="#212529" stroke-width="0.45" stroke-linecap="round" stroke-linejoin="round"/>
<path d="M35.5959 29.3979C35.0145 29.3865 33.8067 29.4459 33.4533 29.4663C31.8471 29.5581 31.9821 29.9931 32.2335 30.0591C33.2229 30.3189 34.8657 30.5391 35.7783 30.7995C37.2471 31.2159 40.1211 31.9281 41.1465 32.7831" stroke="#212529" stroke-width="0.45" stroke-linecap="round" stroke-linejoin="round"/>
<path d="M35.6686 30.7715C35.4034 30.8267 35.194 30.8711 35.0686 30.9041C33.496 31.2461 33.7012 31.6691 33.9634 31.6907C34.9888 31.7753 36.6418 31.7345 37.588 31.8389C38.7298 31.9919 39.8547 32.2514 40.948 32.6141" stroke="#212529" stroke-width="0.45" stroke-linecap="round" stroke-linejoin="round"/>
<path d="M29.0085 46.5207C29.0086 47.5398 28.7065 48.536 28.1405 49.3833C27.5744 50.2307 26.7698 50.8911 25.8284 51.2811C24.8869 51.6712 23.851 51.7733 22.8515 51.5746C21.852 51.3759 20.9339 50.8852 20.2133 50.1647C19.4927 49.4442 19.002 48.5261 18.8031 47.5267C18.6043 46.5273 18.7063 45.4913 19.0962 44.5498C19.4862 43.6083 20.1465 42.8036 20.9938 42.2375C21.8411 41.6713 22.8372 41.3691 23.8563 41.3691C25.2224 41.3697 26.5325 41.9127 27.4985 42.8787C28.4646 43.8446 29.0077 45.1546 29.0085 46.5207Z" stroke="#212529" stroke-width="0.45" stroke-linecap="round" stroke-linejoin="round"/>
<path d="M41.568 53.1391C41.9864 53.0142 42.418 52.9301 42.8569 52.8893C44.6158 52.7277 46.367 53.2707 47.726 54.399C49.085 55.5273 49.9408 57.1486 50.1055 58.9073C50.2269 60.2189 49.9566 61.5365 49.3289 62.6945C48.7012 63.8525 47.7443 64.7981 46.5792 65.4125C45.414 66.0263 44.0929 66.2813 42.783 66.1445C41.473 66.0083 40.233 65.4863 39.2196 64.6451C38.2759 63.8615 37.5682 62.8337 37.1724 61.6763" stroke="#212529" stroke-width="0.45" stroke-linecap="round" stroke-linejoin="round"/>
<path d="M20.4138 78.5813C23.0074 79.6829 25.2389 81.4919 26.8536 83.8013C24.1046 84.4169 21.2383 84.2507 18.579 83.3213C15.9856 82.2191 13.7542 80.4107 12.1392 78.1013C14.8881 77.4851 17.7545 77.6519 20.4138 78.5813Z" stroke="#212529" stroke-width="0.45" stroke-linecap="round" stroke-linejoin="round"/>
<path d="M30.7994 98.8129C31.6134 100.324 31.9848 102.035 31.871 103.748C30.2978 103.04 28.9865 101.856 28.1215 100.363C27.2565 98.8711 26.8815 97.1449 27.0494 95.4277C28.5899 96.1855 29.8886 97.3579 30.7994 98.8129Z" stroke="#212529" stroke-width="0.45" stroke-linecap="round" stroke-linejoin="round"/>
<path d="M50.6183 62.6706C49.0514 64.3152 47.0525 65.4846 44.8511 66.0444C45.0932 63.7752 46.042 61.6392 47.5636 59.9382C49.0851 58.2372 51.1025 57.0571 53.3309 56.5645C53.0125 58.8126 52.073 60.927 50.6183 62.6706Z" stroke="#212529" stroke-width="0.45" stroke-linecap="round" stroke-linejoin="round"/>
<path d="M41.0666 56.2433C40.302 58.3853 38.9506 60.2693 37.1666 61.6799C36.5392 59.4942 36.5369 57.1763 37.16 54.9893C37.924 52.847 39.2755 50.963 41.06 49.5527C41.6858 51.7387 41.6881 54.0562 41.0666 56.2433Z" stroke="#212529" stroke-width="0.45" stroke-linecap="round" stroke-linejoin="round"/>
<path d="M21.1776 40.0446C20.4703 39.3114 19.9811 38.3959 19.7646 37.4004C20.7672 37.5799 21.6991 38.0372 22.4544 38.7204C23.1615 39.4537 23.6507 40.3693 23.8674 41.3646C22.8649 41.1851 21.933 40.7278 21.1776 40.0446Z" stroke="#212529" stroke-width="0.45" stroke-linecap="round" stroke-linejoin="round"/>
<path d="M24.5635 51.623C24.9505 58.0238 25.3639 62.276 32.1649 72.791C38.2351 82.181 31.6165 90.8816 31.7815 101.739" stroke="#212529" stroke-width="0.45" stroke-linecap="round" stroke-linejoin="round"/>
<path d="M40.087 65.2793C40.087 65.2793 34.834 70.5323 34.687 80.2193" stroke="#212529" stroke-width="0.45" stroke-linecap="round" stroke-linejoin="round"/>
<path d="M26.8872 83.7676C26.8872 83.7676 32.757 87.1756 32.1186 96.7948" stroke="#212529" stroke-width="0.45" stroke-linecap="round" stroke-linejoin="round"/>
<path d="M39.9047 103.293C39.8015 102.912 39.5514 102.588 39.2094 102.392C38.8675 102.195 38.4616 102.142 38.0807 102.245L25.9085 105.504C25.7199 105.555 25.5431 105.642 25.3883 105.761C25.2335 105.881 25.1037 106.029 25.0062 106.199C24.9089 106.368 24.8457 106.554 24.8205 106.748C24.7953 106.942 24.8085 107.139 24.8594 107.327C24.9103 107.516 24.9978 107.693 25.117 107.848C25.2362 108.003 25.3847 108.132 25.554 108.23C25.7234 108.327 25.9102 108.39 26.1039 108.416C26.2977 108.441 26.4945 108.428 26.6831 108.377L38.8559 105.117C39.2366 105.014 39.5607 104.763 39.7574 104.421C39.954 104.079 40.007 103.674 39.9047 103.293Z" stroke="#212529" stroke-width="0.45" stroke-linecap="round" stroke-linejoin="round"/>
<path d="M25.3404 44.3398L23.0376 44.545C22.7801 44.583 22.5469 44.718 22.3857 44.9224C22.2245 45.1267 22.1475 45.385 22.1705 45.6443C22.1935 45.9036 22.3147 46.1442 22.5094 46.317C22.7041 46.4898 22.9575 46.5816 23.2176 46.5736L24.5058 46.4596C24.7669 46.4503 25.0216 46.5415 25.2174 46.7143C25.4132 46.8873 25.5352 47.1287 25.5583 47.3889C25.5814 47.6491 25.5037 47.9082 25.3414 48.1129C25.1791 48.3175 24.9444 48.4521 24.6858 48.4888L22.3836 48.7054" stroke="#212529" stroke-width="0.45" stroke-linecap="round" stroke-linejoin="round"/>
<path d="M23.605 43.7285L24.118 49.3133" stroke="#212529" stroke-width="0.45" stroke-linecap="round" stroke-linejoin="round"/>
<path d="M46.4812 58.3612L44.0302 56.9596C43.7416 56.7949 43.3993 56.7516 43.0787 56.8393C42.7582 56.927 42.4855 57.1383 42.3208 57.427C42.1561 57.7157 42.1129 58.058 42.2005 58.3785C42.2881 58.6991 42.4996 58.9717 42.7882 59.1364L44.1556 59.923C44.2985 60.0046 44.424 60.1132 44.5249 60.2434C44.6257 60.3736 44.6999 60.5224 44.7433 60.6808C44.7868 60.8398 44.7985 61.0054 44.7778 61.1686C44.7572 61.3318 44.7046 61.4896 44.623 61.6324C44.5415 61.7752 44.4326 61.9006 44.3025 62.0014C44.1725 62.1022 44.0239 62.1766 43.8651 62.2204C43.7064 62.2636 43.5407 62.275 43.3774 62.2546C43.2142 62.2342 43.0565 62.1814 42.9136 62.0998L40.4536 60.6982" stroke="#212529" stroke-width="0.45" stroke-linecap="round" stroke-linejoin="round"/>
<path d="M45.17 56.5371L41.7734 62.5095" stroke="#212529" stroke-width="0.45" stroke-linecap="round" stroke-linejoin="round"/>
<path d="M45.8881 94.6972C46.2437 94.8466 46.6436 94.852 47.0031 94.7122C47.3627 94.5724 47.6538 94.2982 47.815 93.9478C47.9762 93.5974 47.995 93.1978 47.8672 92.8342C47.7394 92.47 47.4751 92.17 47.1301 91.9972L39.5395 88.5436C39.1837 88.393 38.7831 88.3864 38.4227 88.5262C38.0623 88.6654 37.7704 88.9402 37.6088 89.2912C37.4473 89.6422 37.4287 90.0424 37.5572 90.4066C37.6856 90.7714 37.951 91.0714 38.2969 91.2436L45.8881 94.6972Z" stroke="#212529" stroke-width="0.45" stroke-linecap="round" stroke-linejoin="round"/>
<path d="M62.8364 85.6596C62.858 86.1 62.7482 86.5374 62.5208 86.916C62.294 87.294 61.9598 87.5964 61.5608 87.7848C61.1618 87.9732 60.716 88.0392 60.2798 87.9744C59.8433 87.9096 59.436 87.7164 59.1092 87.42C58.7825 87.1236 58.551 86.7372 58.444 86.3088C58.337 85.881 58.3594 85.4304 58.5082 85.0152C58.6571 84.6 58.9258 84.2382 59.2803 83.9754C59.6348 83.7126 60.0593 83.5614 60.5 83.5398C60.7928 83.5254 61.085 83.5692 61.361 83.6676C61.637 83.7666 61.8902 83.919 62.1074 84.1158C62.3246 84.3126 62.5004 84.5502 62.6252 84.8148C62.7506 85.08 62.822 85.3668 62.8364 85.6596Z" stroke="#212529" stroke-width="0.45" stroke-linecap="round" stroke-linejoin="round"/>
<path d="M68.8658 91.0387C68.8874 91.4797 68.7776 91.9165 68.5502 92.2951C68.3234 92.6731 67.9892 92.9755 67.5902 93.1639C67.1912 93.3529 66.7454 93.4183 66.3092 93.3535C65.873 93.2887 65.4656 93.0955 65.1386 92.7991C64.8116 92.5027 64.5806 92.1163 64.4732 91.6879C64.3664 91.2601 64.3886 90.8095 64.5374 90.3943C64.6868 89.9791 64.955 89.6173 65.3096 89.3545C65.6642 89.0917 66.089 88.9405 66.5294 88.9189C66.8222 88.9039 67.115 88.9471 67.391 89.0461C67.667 89.1445 67.9208 89.2969 68.138 89.4937C68.3546 89.6905 68.531 89.9287 68.6558 90.1933C68.7806 90.4585 68.852 90.7459 68.8658 91.0387Z" stroke="#212529" stroke-width="0.45" stroke-linecap="round" stroke-linejoin="round"/>
<path d="M58.7671 93.7627L68.4661 83.0605" stroke="#212529" stroke-width="0.45" stroke-linecap="round" stroke-linejoin="round"/>
<path d="M92.5845 32.1699L92.8467 37.6179" stroke="#212529" stroke-width="0.45" stroke-linecap="round" stroke-linejoin="round"/>
<path d="M95.4452 34.7559L89.9858 35.0295" stroke="#212529" stroke-width="0.45" stroke-linecap="round" stroke-linejoin="round"/>
<path d="M51.0049 18.1608C50.1955 17.112 50.6311 15.2526 49.8883 14.3766C48.9673 13.2918 48.8347 13.5408 47.1883 15.3684C46.7887 15.8118 47.4163 16.6446 48.8869 15.4368C48.3965 15.7664 48.0332 16.2534 47.8566 16.8173C47.6802 17.3812 47.7011 17.9884 47.9161 18.5388" stroke="#212529" stroke-width="0.45" stroke-linecap="round" stroke-linejoin="round"/>
<path d="M43.814 20.053L45.3182 18.6172" stroke="#212529" stroke-width="0.45" stroke-linecap="round" stroke-linejoin="round"/>
<path d="M45.3201 18.6181C46.0365 19.2781 46.8801 18.4381 46.2321 17.7517C45.7521 17.2411 45.3885 16.8967 44.9895 16.4977C44.8745 16.3672 44.7131 16.2868 44.5397 16.2734C44.3663 16.2602 44.1945 16.315 44.0609 16.4264C43.9274 16.5378 43.8425 16.6969 43.8244 16.8699C43.8064 17.0429 43.8565 17.216 43.9641 17.3527C44.2647 17.7001 44.6553 18.0043 45.3201 18.6181Z" stroke="#212529" stroke-width="0.45" stroke-linecap="round" stroke-linejoin="round"/>
<path d="M28.669 75.3613C28.2695 72.6811 27.1587 70.1575 25.4524 68.0527C24.099 70.5247 23.4707 73.3285 23.6398 76.1413C23.9883 78.9367 25.1137 81.5785 26.8882 83.7667C28.3075 81.2053 28.9277 78.2779 28.669 75.3613Z" stroke="#212529" stroke-width="0.45" stroke-linecap="round" stroke-linejoin="round"/>
<path d="M44.874 36.6137C45.3102 34.2384 46.6245 32.1143 48.5556 30.6641" stroke="#212529" stroke-width="0.45" stroke-linecap="round" stroke-linejoin="round"/>
<path d="M49.9692 24.2387C50.5963 22.2365 51.8163 20.4718 53.4678 19.1777" stroke="#212529" stroke-width="0.45" stroke-linecap="round" stroke-linejoin="round"/>
</svg>
