<svg width="22" height="38" viewBox="0 0 22 38" fill="none" xmlns="http://www.w3.org/2000/svg">
<path d="M17.8333 0.666016H4.49992C2.19992 0.666016 0.333252 2.53268 0.333252 4.83268V33.166C0.333252 35.466 2.19992 37.3327 4.49992 37.3327H17.8333C20.1333 37.3327 21.9999 35.466 21.9999 33.166V4.83268C21.9999 2.53268 20.1333 0.666016 17.8333 0.666016ZM11.1666 35.666C9.78325 35.666 8.66659 34.5493 8.66659 33.166C8.66659 31.7827 9.78325 30.666 11.1666 30.666C12.5499 30.666 13.6666 31.7827 13.6666 33.166C13.6666 34.5493 12.5499 35.666 11.1666 35.666ZM18.6666 28.9993H3.66659V5.66602H18.6666V28.9993Z" fill="#616161"/>
</svg>
