<svg width="40" height="40" viewBox="0 0 40 40" fill="none" xmlns="http://www.w3.org/2000/svg">
<path d="M24.6473 15.0539L26.0873 16.4939L21.2073 21.3739L17.9173 18.0839C17.5273 17.6939 16.8973 17.6939 16.5073 18.0839L10.5073 24.0939C10.1173 24.4839 10.1173 25.1139 10.5073 25.5039C10.8973 25.8939 11.5273 25.8939 11.9173 25.5039L17.2073 20.2039L20.4973 23.4939C20.8873 23.8839 21.5173 23.8839 21.9073 23.4939L27.4973 17.9139L28.9373 19.3539C29.2473 19.6639 29.7873 19.4439 29.7873 19.0039V14.7039C29.7973 14.4239 29.5773 14.2039 29.2973 14.2039H25.0073C24.5573 14.2039 24.3373 14.7439 24.6473 15.0539Z" fill="#5A5A5A"/>
</svg>
