<svg width="343" height="240" viewBox="0 0 343 240" fill="none" xmlns="http://www.w3.org/2000/svg">
<g clip-path="url(#clip0_860_10197)">
<rect width="343" height="240" rx="8" fill="white"/>
<path d="M388.989 15.6378L344.735 33.177C335.965 36.6527 330.114 45.6326 330.847 54.4917L333.437 85.7801C334.374 97.1041 324.693 107.944 313.143 108.503L277.855 110.208C266.939 110.736 257.54 120.507 257.499 131.371L257.383 162.686C257.339 174.412 246.476 184.623 234.889 183.827L209.133 182.059C198.026 181.296 187.456 190.683 186.682 201.996L182.717 259.948" stroke="#6DB720" stroke-width="0.688952" stroke-linecap="round"/>
<path d="M522.919 149.566L478.664 167.105C469.894 170.581 464.044 179.56 464.777 188.42L467.367 219.708C468.304 231.032 458.622 241.872 447.072 242.43L411.785 244.136C400.868 244.664 391.47 254.435 391.429 265.298L391.313 296.614C391.269 308.34 380.405 318.551 368.818 317.755L343.063 315.987C331.956 315.224 321.386 324.611 320.612 335.924L316.647 393.875" stroke="#6DB720" stroke-width="0.688952" stroke-linecap="round"/>
<path d="M512.614 139.263L468.36 156.802C459.59 160.278 453.739 169.258 454.472 178.117L457.062 209.405C457.999 220.729 448.318 231.569 436.768 232.128L401.48 233.833C390.564 234.361 381.165 244.132 381.124 254.996L381.008 286.311C380.964 298.037 370.101 308.248 358.514 307.452L332.758 305.684C321.651 304.921 311.081 314.308 310.307 325.621L306.342 383.573" stroke="#6DB720" stroke-width="0.688952"/>
<path d="M502.314 128.961L458.059 146.5C449.289 149.976 443.438 158.956 444.171 167.815L446.761 199.103C447.699 210.427 438.017 221.268 426.467 221.826L391.179 223.532C380.263 224.059 370.864 233.83 370.824 244.694L370.707 276.009C370.664 287.736 359.8 297.946 348.213 297.15L322.457 295.382C311.351 294.62 300.781 304.006 300.007 315.319L296.041 373.271" stroke="#6DB720" stroke-width="0.688952"/>
<path d="M492.013 118.659L447.758 136.198C438.988 139.674 433.137 148.654 433.871 157.513L436.461 188.802C437.398 200.126 427.716 210.966 416.166 211.524L380.879 213.23C369.962 213.758 360.563 223.529 360.523 234.392L360.406 265.707C360.363 277.434 349.499 287.644 337.912 286.849L312.157 285.08C301.05 284.318 290.48 293.704 289.706 305.018L285.74 362.969" stroke="#6DB720" stroke-width="0.688952"/>
<path d="M481.708 108.356L437.453 125.896C428.684 129.371 422.833 138.351 423.566 147.21L426.156 178.499C427.093 189.823 417.411 200.663 405.861 201.221L370.574 202.927C359.657 203.455 350.259 213.226 350.218 224.089L350.102 255.404C350.058 267.131 339.194 277.341 327.607 276.546L301.852 274.778C290.745 274.015 280.175 283.402 279.401 294.715L275.436 352.666" stroke="#6DB720" stroke-width="0.688952"/>
<path d="M471.407 98.0547L427.153 115.594C418.383 119.07 412.532 128.05 413.265 136.909L415.855 168.197C416.792 179.521 407.111 190.361 395.561 190.919L360.273 192.625C349.357 193.153 339.958 202.924 339.917 213.787L339.801 245.103C339.757 256.829 328.894 267.04 317.307 266.244L291.551 264.476C280.444 263.713 269.874 273.1 269.1 284.413L265.135 342.365" stroke="#6DB720" stroke-width="0.688952"/>
<path d="M461.103 87.7526L416.848 105.292C408.078 108.767 402.227 117.747 402.961 126.606L405.55 157.895C406.488 169.219 396.806 180.059 385.256 180.617L349.968 182.323C339.052 182.851 329.653 192.622 329.613 203.485L329.496 234.8C329.453 246.527 318.589 256.738 307.002 255.942L281.246 254.174C270.14 253.411 259.57 262.798 258.796 274.111L254.83 332.062" stroke="#6DB720" stroke-width="0.688952"/>
<path d="M450.802 77.4504L406.547 94.9896C397.777 98.4654 391.926 107.445 392.66 116.304L395.25 147.593C396.187 158.917 386.505 169.757 374.955 170.315L339.668 172.021C328.751 172.549 319.352 182.32 319.312 193.183L319.196 224.498C319.152 236.225 308.288 246.435 296.701 245.64L270.946 243.872C259.839 243.109 249.269 252.496 248.495 263.809L244.529 321.76" stroke="#6DB720" stroke-width="0.688952"/>
<path d="M440.501 67.1487L396.246 84.6879C387.476 88.1636 381.626 97.1435 382.359 106.003L384.949 137.291C385.886 148.615 376.204 159.455 364.654 160.013L329.367 161.719C318.45 162.247 309.052 172.018 309.011 182.881L308.895 214.197C308.851 225.923 297.987 236.134 286.4 235.338L260.645 233.57C249.538 232.807 238.968 242.194 238.194 253.507L234.229 311.459" stroke="#6DB720" stroke-width="0.688952"/>
<path d="M430.196 56.8462L385.942 74.3854C377.172 77.8611 371.321 86.841 372.054 95.7001L374.644 126.988C375.581 138.313 365.9 149.153 354.35 149.711L319.062 151.417C308.146 151.944 298.747 161.716 298.707 172.579L298.59 203.894C298.546 215.621 287.683 225.831 276.096 225.036L250.34 223.267C239.233 222.505 228.664 231.891 227.889 243.205L223.924 301.156" stroke="#6DB720" stroke-width="0.688952"/>
<path d="M419.896 46.5441L375.641 64.0833C366.871 67.559 361.02 76.5389 361.753 85.398L364.343 116.686C365.281 128.01 355.599 138.851 344.049 139.409L308.761 141.115C297.845 141.642 288.446 151.414 288.406 162.277L288.289 193.592C288.246 205.319 277.382 215.529 265.795 214.734L240.039 212.965C228.933 212.203 218.363 221.589 217.589 232.902L213.623 290.854" stroke="#6DB720" stroke-width="0.688952"/>
<path d="M409.595 36.2416L365.34 53.7808C356.57 57.2565 350.719 66.2365 351.453 75.0955L354.043 106.384C354.98 117.708 345.298 128.548 333.748 129.106L298.461 130.812C287.544 131.34 278.145 141.111 278.105 151.974L277.989 183.29C277.945 195.016 267.081 205.227 255.494 204.431L229.739 202.663C218.632 201.9 208.062 211.287 207.288 222.6L203.322 280.551" stroke="#6DB720" stroke-width="0.688952"/>
<path d="M399.29 25.9399L355.036 43.479C346.266 46.9548 340.415 55.9347 341.148 64.7937L343.738 96.0821C344.675 107.406 334.993 118.246 323.443 118.805L288.156 120.51C277.239 121.038 267.841 130.809 267.8 141.673L267.684 172.988C267.64 184.714 256.776 194.925 245.189 194.129L219.434 192.361C208.327 191.598 197.757 200.985 196.983 212.298L193.018 270.25" stroke="#6DB720" stroke-width="0.688952"/>
</g>
<rect x="0.5" y="0.5" width="342" height="239" rx="7.5" stroke="#F5F5F5"/>
<defs>
<clipPath id="clip0_860_10197">
<rect width="343" height="240" rx="8" fill="white"/>
</clipPath>
</defs>
</svg>
