<svg width="400" height="240" viewBox="0 0 400 240" fill="none" xmlns="http://www.w3.org/2000/svg">
<g clip-path="url(#clip0_562_8749)">
<rect width="400" height="240" rx="8" fill="white"/>
<path d="M405.989 54.6377L361.735 72.1769C352.965 75.6527 347.114 84.6326 347.847 93.4916L350.437 124.78C351.374 136.104 341.693 146.944 330.143 147.503L294.855 149.208C283.939 149.736 274.54 159.507 274.499 170.37L274.383 201.686C274.339 213.412 263.476 223.623 251.889 222.827L226.133 221.059C215.026 220.296 204.456 229.683 203.682 240.996L199.717 298.948" stroke="#6DB720" stroke-width="0.688952" stroke-linecap="round"/>
<path d="M539.919 188.565L495.664 206.105C486.894 209.58 481.044 218.56 481.777 227.419L484.367 258.708C485.304 270.032 475.622 280.872 464.072 281.43L428.785 283.136C417.868 283.664 408.47 293.435 408.429 304.298L408.313 335.613C408.269 347.34 397.405 357.55 385.818 356.755L360.063 354.987C348.956 354.224 338.386 363.611 337.612 374.924L333.647 432.875" stroke="#6DB720" stroke-width="0.688952" stroke-linecap="round"/>
<path d="M529.614 178.263L485.36 195.802C476.59 199.278 470.739 208.258 471.472 217.117L474.062 248.405C474.999 259.729 465.318 270.569 453.768 271.128L418.48 272.833C407.564 273.361 398.165 283.132 398.124 293.995L398.008 325.311C397.964 337.037 387.101 347.248 375.514 346.452L349.758 344.684C338.651 343.921 328.081 353.308 327.307 364.621L323.342 422.573" stroke="#6DB720" stroke-width="0.688952"/>
<path d="M519.314 167.961L475.059 185.5C466.289 188.976 460.438 197.956 461.171 206.815L463.761 238.103C464.699 249.427 455.017 260.267 443.467 260.826L408.179 262.532C397.263 263.059 387.864 272.83 387.824 283.694L387.707 315.009C387.664 326.736 376.8 336.946 365.213 336.15L339.457 334.382C328.351 333.62 317.781 343.006 317.007 354.319L313.041 412.271" stroke="#6DB720" stroke-width="0.688952"/>
<path d="M509.013 157.659L464.758 175.198C455.988 178.674 450.137 187.654 450.871 196.513L453.461 227.801C454.398 239.126 444.716 249.966 433.166 250.524L397.879 252.23C386.962 252.757 377.563 262.529 377.523 273.392L377.406 304.707C377.363 316.434 366.499 326.644 354.912 325.849L329.157 324.08C318.05 323.318 307.48 332.704 306.706 344.018L302.74 401.969" stroke="#6DB720" stroke-width="0.688952"/>
<path d="M498.708 147.356L454.453 164.896C445.684 168.371 439.833 177.351 440.566 186.21L443.156 217.499C444.093 228.823 434.411 239.663 422.861 240.221L387.574 241.927C376.657 242.455 367.259 252.226 367.218 263.089L367.102 294.404C367.058 306.131 356.194 316.341 344.607 315.546L318.852 313.778C307.745 313.015 297.175 322.402 296.401 333.715L292.436 391.666" stroke="#6DB720" stroke-width="0.688952"/>
<path d="M488.407 137.055L444.153 154.594C435.383 158.07 429.532 167.05 430.265 175.909L432.855 207.197C433.792 218.521 424.111 229.361 412.561 229.92L377.273 231.625C366.357 232.153 356.958 241.924 356.917 252.787L356.801 284.103C356.757 295.829 345.894 306.04 334.307 305.244L308.551 303.476C297.444 302.713 286.874 312.1 286.1 323.413L282.135 381.365" stroke="#6DB720" stroke-width="0.688952"/>
<path d="M478.103 126.753L433.848 144.292C425.078 147.768 419.227 156.748 419.961 165.607L422.55 196.895C423.488 208.219 413.806 219.059 402.256 219.618L366.968 221.324C356.052 221.851 346.653 231.622 346.613 242.486L346.496 273.801C346.453 285.528 335.589 295.738 324.002 294.942L298.246 293.174C287.14 292.412 276.57 301.798 275.796 313.111L271.83 371.063" stroke="#6DB720" stroke-width="0.688952"/>
<path d="M467.802 116.45L423.547 133.989C414.777 137.465 408.926 146.445 409.66 155.304L412.25 186.592C413.187 197.917 403.505 208.757 391.955 209.315L356.668 211.021C345.751 211.548 336.352 221.32 336.312 232.183L336.196 263.498C336.152 275.225 325.288 285.435 313.701 284.64L287.946 282.871C276.839 282.109 266.269 291.495 265.495 302.809L261.529 360.76" stroke="#6DB720" stroke-width="0.688952"/>
<path d="M457.501 106.148L413.246 123.688C404.476 127.163 398.626 136.143 399.359 145.002L401.949 176.291C402.886 187.615 393.204 198.455 381.654 199.013L346.367 200.719C335.45 201.247 326.052 211.018 326.011 221.881L325.895 253.196C325.851 264.923 314.987 275.133 303.4 274.338L277.645 272.57C266.538 271.807 255.968 281.194 255.194 292.507L251.229 350.458" stroke="#6DB720" stroke-width="0.688952"/>
<path d="M447.196 95.8457L402.942 113.385C394.172 116.861 388.321 125.841 389.054 134.7L391.644 165.988C392.581 177.312 382.9 188.152 371.35 188.711L336.062 190.416C325.146 190.944 315.747 200.715 315.707 211.578L315.59 242.894C315.546 254.62 304.683 264.831 293.096 264.035L267.34 262.267C256.233 261.504 245.664 270.891 244.889 282.204L240.924 340.156" stroke="#6DB720" stroke-width="0.688952"/>
<path d="M436.896 85.544L392.641 103.083C383.871 106.559 378.02 115.539 378.753 124.398L381.343 155.686C382.281 167.01 372.599 177.85 361.049 178.409L325.761 180.115C314.845 180.642 305.446 190.413 305.406 201.277L305.289 232.592C305.246 244.319 294.382 254.529 282.795 253.733L257.039 251.965C245.933 251.203 235.363 260.589 234.589 271.902L230.623 329.854" stroke="#6DB720" stroke-width="0.688952"/>
<path d="M426.595 75.2412L382.34 92.7804C373.57 96.2562 367.719 105.236 368.453 114.095L371.043 145.384C371.98 156.708 362.298 167.548 350.748 168.106L315.461 169.812C304.544 170.339 295.145 180.111 295.105 190.974L294.989 222.289C294.945 234.016 284.081 244.226 272.494 243.431L246.739 241.662C235.632 240.9 225.062 250.286 224.288 261.6L220.322 319.551" stroke="#6DB720" stroke-width="0.688952"/>
<path d="M416.29 64.9395L372.036 82.4787C363.266 85.9544 357.415 94.9343 358.148 103.793L360.738 135.082C361.675 146.406 351.993 157.246 340.443 157.804L305.156 159.51C294.239 160.038 284.841 169.809 284.8 180.672L284.684 211.987C284.64 223.714 273.776 233.924 262.189 233.129L236.434 231.361C225.327 230.598 214.757 239.985 213.983 251.298L210.018 309.249" stroke="#6DB720" stroke-width="0.688952"/>
</g>
<rect x="0.5" y="0.5" width="399" height="239" rx="7.5" stroke="#F5F5F5"/>
<defs>
<clipPath id="clip0_562_8749">
<rect width="400" height="240" rx="8" fill="white"/>
</clipPath>
</defs>
</svg>
